<svg width="241" height="193" viewBox="0 0 241 193" fill="none" xmlns="http://www.w3.org/2000/svg">
<rect x="0.5" y="0.5" width="240" height="192" rx="7.5" stroke="#929292" stroke-dasharray="2 2"/>
<rect x="15" y="10" width="216" height="70" rx="4" fill="#D3D4D7"/>
<path d="M76.9659 22.1847L75.5597 22.3381C75.5199 22.196 75.4503 22.0625 75.3509 21.9375C75.2543 21.8125 75.1236 21.7116 74.9588 21.6349C74.794 21.5582 74.5923 21.5199 74.3537 21.5199C74.0327 21.5199 73.7628 21.5895 73.544 21.7287C73.3281 21.8679 73.2216 22.0483 73.2244 22.2699C73.2216 22.4602 73.2912 22.6151 73.4332 22.7344C73.5781 22.8537 73.8168 22.9517 74.1491 23.0284L75.2656 23.267C75.8849 23.4006 76.3452 23.6122 76.6463 23.902C76.9503 24.1918 77.1037 24.571 77.1065 25.0398C77.1037 25.4517 76.983 25.8153 76.7443 26.1307C76.5085 26.4432 76.1804 26.6875 75.7599 26.8636C75.3395 27.0398 74.8565 27.1278 74.3111 27.1278C73.5099 27.1278 72.8651 26.9602 72.3764 26.625C71.8878 26.2869 71.5966 25.8168 71.5028 25.2145L73.0071 25.0696C73.0753 25.3651 73.2202 25.5881 73.4418 25.7386C73.6634 25.8892 73.9517 25.9645 74.3068 25.9645C74.6733 25.9645 74.9673 25.8892 75.1889 25.7386C75.4134 25.5881 75.5256 25.402 75.5256 25.1804C75.5256 24.9929 75.4531 24.8381 75.3082 24.7159C75.1662 24.5937 74.9446 24.5 74.6435 24.4347L73.527 24.2003C72.8991 24.0696 72.4347 23.8494 72.1335 23.5398C71.8324 23.2273 71.6832 22.8324 71.6861 22.3551C71.6832 21.9517 71.7926 21.6023 72.0142 21.3068C72.2386 21.0085 72.5497 20.7784 72.9474 20.6165C73.348 20.4517 73.8097 20.3693 74.3324 20.3693C75.0994 20.3693 75.7031 20.5327 76.1435 20.8594C76.5866 21.1861 76.8608 21.6278 76.9659 22.1847ZM79.9212 23.1648V27H78.3786V18.2727H79.8871V21.5668H79.9638C80.1172 21.1974 80.3544 20.9062 80.6754 20.6932C80.9993 20.4773 81.4112 20.3693 81.9112 20.3693C82.3658 20.3693 82.7621 20.4645 83.1001 20.6548C83.4382 20.8452 83.6996 21.1236 83.8842 21.4901C84.0717 21.8565 84.1655 22.304 84.1655 22.8324V27H82.6229V23.071C82.6229 22.6307 82.5092 22.2884 82.282 22.044C82.0575 21.7969 81.7422 21.6733 81.3359 21.6733C81.0632 21.6733 80.8189 21.733 80.603 21.8523C80.3899 21.9687 80.2223 22.1378 80.1001 22.3594C79.9808 22.581 79.9212 22.8494 79.9212 23.1648ZM87.6214 27.1321C87.2067 27.1321 86.8331 27.0582 86.5007 26.9105C86.1712 26.7599 85.9098 26.5384 85.7166 26.2457C85.5263 25.9531 85.4311 25.5923 85.4311 25.1634C85.4311 24.794 85.4993 24.4886 85.6357 24.2472C85.772 24.0057 85.9581 23.8125 86.1939 23.6676C86.4297 23.5227 86.6953 23.4134 86.9908 23.3395C87.2891 23.2628 87.5973 23.2074 87.9155 23.1733C88.299 23.1335 88.6101 23.098 88.8487 23.0668C89.0874 23.0327 89.2607 22.9815 89.3686 22.9134C89.4794 22.8423 89.5348 22.733 89.5348 22.5852V22.5597C89.5348 22.2386 89.4396 21.9901 89.2493 21.8139C89.0589 21.6378 88.7848 21.5497 88.4268 21.5497C88.049 21.5497 87.7493 21.6321 87.5277 21.7969C87.3089 21.9616 87.1612 22.1562 87.0845 22.3807L85.6442 22.1761C85.7578 21.7784 85.9453 21.446 86.2067 21.179C86.468 20.9091 86.7876 20.7074 87.1655 20.5739C87.5433 20.4375 87.9609 20.3693 88.4183 20.3693C88.7337 20.3693 89.0476 20.4062 89.3601 20.4801C89.6726 20.554 89.9581 20.6761 90.2166 20.8466C90.4751 21.0142 90.6825 21.2429 90.8388 21.5327C90.9979 21.8224 91.0774 22.1847 91.0774 22.6193V27H89.5945V26.1009H89.5433C89.4496 26.2827 89.3175 26.4531 89.147 26.6122C88.9794 26.7685 88.7678 26.8949 88.5121 26.9915C88.2592 27.0852 87.9624 27.1321 87.6214 27.1321ZM88.022 25.9986C88.3317 25.9986 88.6001 25.9375 88.8274 25.8153C89.0547 25.6903 89.2294 25.5256 89.3516 25.321C89.4766 25.1165 89.5391 24.8935 89.5391 24.652V23.8807C89.4908 23.9205 89.4084 23.9574 89.2919 23.9915C89.1783 24.0256 89.0504 24.0554 88.9084 24.081C88.7663 24.1065 88.6257 24.1293 88.4865 24.1491C88.3473 24.169 88.2266 24.1861 88.1243 24.2003C87.8942 24.2315 87.6882 24.2827 87.5064 24.3537C87.3246 24.4247 87.1811 24.5241 87.076 24.652C86.9709 24.777 86.9183 24.9389 86.9183 25.1378C86.9183 25.4219 87.022 25.6364 87.2294 25.7812C87.4368 25.9261 87.701 25.9986 88.022 25.9986ZM92.6286 27V20.4545H94.1243V21.5455H94.1925C94.3118 21.1676 94.5163 20.8764 94.8061 20.6719C95.0987 20.4645 95.4325 20.3608 95.8075 20.3608C95.8928 20.3608 95.9879 20.3651 96.093 20.3736C96.201 20.3793 96.2905 20.3892 96.3615 20.4034V21.8224C96.2962 21.7997 96.1925 21.7798 96.0504 21.7628C95.9112 21.7429 95.7763 21.733 95.6456 21.733C95.3643 21.733 95.1115 21.794 94.8871 21.9162C94.6655 22.0355 94.4908 22.2017 94.3629 22.4148C94.2351 22.6278 94.1712 22.8736 94.1712 23.152V27H92.6286ZM100.015 27.1278C99.3583 27.1278 98.7915 26.9915 98.3143 26.7188C97.8398 26.4432 97.4748 26.054 97.2191 25.5511C96.9634 25.0455 96.8356 24.4503 96.8356 23.7656C96.8356 23.0923 96.9634 22.5014 97.2191 21.9929C97.4776 21.4815 97.8384 21.0838 98.3015 20.7997C98.7646 20.5128 99.3086 20.3693 99.9336 20.3693C100.337 20.3693 100.718 20.4347 101.076 20.5653C101.436 20.6932 101.755 20.892 102.03 21.1619C102.309 21.4318 102.527 21.7756 102.686 22.1932C102.846 22.608 102.925 23.1023 102.925 23.6761V24.1491H97.56V23.1094H101.446C101.444 22.8139 101.38 22.5511 101.255 22.321C101.13 22.0881 100.955 21.9048 100.73 21.7713C100.509 21.6378 100.25 21.571 99.9549 21.571C99.6396 21.571 99.3626 21.6477 99.1239 21.8011C98.8853 21.9517 98.6992 22.1506 98.5657 22.3977C98.435 22.642 98.3683 22.9105 98.3654 23.2031V24.1108C98.3654 24.4915 98.435 24.8182 98.5742 25.0909C98.7134 25.3608 98.908 25.5682 99.158 25.7131C99.408 25.8551 99.7006 25.9261 100.036 25.9261C100.26 25.9261 100.463 25.8949 100.645 25.8324C100.827 25.767 100.985 25.6719 101.118 25.5469C101.252 25.4219 101.353 25.267 101.421 25.0824L102.861 25.2443C102.77 25.625 102.597 25.9574 102.341 26.2415C102.088 26.5227 101.765 26.7415 101.37 26.8977C100.975 27.0511 100.523 27.1278 100.015 27.1278ZM106.659 27.1151C106.145 27.1151 105.685 26.983 105.278 26.7188C104.872 26.4545 104.551 26.071 104.315 25.5682C104.08 25.0653 103.962 24.4545 103.962 23.7358C103.962 23.0085 104.081 22.3949 104.32 21.8949C104.561 21.392 104.886 21.0128 105.295 20.7571C105.705 20.4986 106.161 20.3693 106.663 20.3693C107.047 20.3693 107.362 20.4347 107.609 20.5653C107.857 20.6932 108.053 20.848 108.197 21.0298C108.342 21.2088 108.455 21.3778 108.534 21.5369H108.598V18.2727H110.145V27H108.628V25.9688H108.534C108.455 26.1278 108.339 26.2969 108.189 26.4759C108.038 26.652 107.839 26.8026 107.592 26.9276C107.345 27.0526 107.034 27.1151 106.659 27.1151ZM107.089 25.8494C107.416 25.8494 107.695 25.7614 107.925 25.5852C108.155 25.4062 108.33 25.1577 108.449 24.8395C108.568 24.5213 108.628 24.1506 108.628 23.7273C108.628 23.304 108.568 22.9361 108.449 22.6236C108.332 22.3111 108.159 22.0682 107.929 21.8949C107.702 21.7216 107.422 21.6349 107.089 21.6349C106.746 21.6349 106.459 21.7244 106.229 21.9034C105.999 22.0824 105.825 22.3295 105.709 22.6449C105.592 22.9602 105.534 23.321 105.534 23.7273C105.534 24.1364 105.592 24.5014 105.709 24.8224C105.828 25.1406 106.003 25.392 106.233 25.5767C106.466 25.7585 106.751 25.8494 107.089 25.8494ZM114.765 27V20.4545H116.261V21.5455H116.329C116.449 21.1676 116.653 20.8764 116.943 20.6719C117.235 20.4645 117.569 20.3608 117.944 20.3608C118.029 20.3608 118.125 20.3651 118.23 20.3736C118.338 20.3793 118.427 20.3892 118.498 20.4034V21.8224C118.433 21.7997 118.329 21.7798 118.187 21.7628C118.048 21.7429 117.913 21.733 117.782 21.733C117.501 21.733 117.248 21.794 117.024 21.9162C116.802 22.0355 116.627 22.2017 116.5 22.4148C116.372 22.6278 116.308 22.8736 116.308 23.152V27H114.765ZM122.151 27.1278C121.495 27.1278 120.928 26.9915 120.451 26.7188C119.977 26.4432 119.612 26.054 119.356 25.5511C119.1 25.0455 118.972 24.4503 118.972 23.7656C118.972 23.0923 119.1 22.5014 119.356 21.9929C119.614 21.4815 119.975 21.0838 120.438 20.7997C120.901 20.5128 121.445 20.3693 122.07 20.3693C122.474 20.3693 122.854 20.4347 123.212 20.5653C123.573 20.6932 123.891 20.892 124.167 21.1619C124.445 21.4318 124.664 21.7756 124.823 22.1932C124.982 22.608 125.062 23.1023 125.062 23.6761V24.1491H119.697V23.1094H123.583C123.58 22.8139 123.516 22.5511 123.391 22.321C123.266 22.0881 123.092 21.9048 122.867 21.7713C122.646 21.6378 122.387 21.571 122.092 21.571C121.776 21.571 121.499 21.6477 121.261 21.8011C121.022 21.9517 120.836 22.1506 120.702 22.3977C120.572 22.642 120.505 22.9105 120.502 23.2031V24.1108C120.502 24.4915 120.572 24.8182 120.711 25.0909C120.85 25.3608 121.045 25.5682 121.295 25.7131C121.545 25.8551 121.837 25.9261 122.173 25.9261C122.397 25.9261 122.6 25.8949 122.782 25.8324C122.964 25.767 123.121 25.6719 123.255 25.5469C123.388 25.4219 123.489 25.267 123.558 25.0824L124.998 25.2443C124.907 25.625 124.734 25.9574 124.478 26.2415C124.225 26.5227 123.901 26.7415 123.506 26.8977C123.112 27.0511 122.66 27.1278 122.151 27.1278ZM131.54 22.1847L130.134 22.3381C130.094 22.196 130.025 22.0625 129.925 21.9375C129.828 21.8125 129.698 21.7116 129.533 21.6349C129.368 21.5582 129.167 21.5199 128.928 21.5199C128.607 21.5199 128.337 21.5895 128.118 21.7287C127.902 21.8679 127.796 22.0483 127.799 22.2699C127.796 22.4602 127.865 22.6151 128.007 22.7344C128.152 22.8537 128.391 22.9517 128.723 23.0284L129.84 23.267C130.459 23.4006 130.919 23.6122 131.221 23.902C131.525 24.1918 131.678 24.571 131.681 25.0398C131.678 25.4517 131.557 25.8153 131.319 26.1307C131.083 26.4432 130.755 26.6875 130.334 26.8636C129.914 27.0398 129.431 27.1278 128.885 27.1278C128.084 27.1278 127.439 26.9602 126.951 26.625C126.462 26.2869 126.171 25.8168 126.077 25.2145L127.581 25.0696C127.65 25.3651 127.794 25.5881 128.016 25.7386C128.238 25.8892 128.526 25.9645 128.881 25.9645C129.248 25.9645 129.542 25.8892 129.763 25.7386C129.988 25.5881 130.1 25.402 130.1 25.1804C130.1 24.9929 130.027 24.8381 129.882 24.7159C129.74 24.5937 129.519 24.5 129.218 24.4347L128.101 24.2003C127.473 24.0696 127.009 23.8494 126.708 23.5398C126.407 23.2273 126.257 22.8324 126.26 22.3551C126.257 21.9517 126.367 21.6023 126.588 21.3068C126.813 21.0085 127.124 20.7784 127.522 20.6165C127.922 20.4517 128.384 20.3693 128.907 20.3693C129.674 20.3693 130.277 20.5327 130.718 20.8594C131.161 21.1861 131.435 21.6278 131.54 22.1847ZM135.808 27.1278C135.169 27.1278 134.615 26.9872 134.146 26.706C133.677 26.4247 133.314 26.0312 133.055 25.5256C132.799 25.0199 132.672 24.429 132.672 23.7528C132.672 23.0767 132.799 22.4844 133.055 21.9759C133.314 21.4673 133.677 21.0724 134.146 20.7912C134.615 20.5099 135.169 20.3693 135.808 20.3693C136.447 20.3693 137.001 20.5099 137.47 20.7912C137.939 21.0724 138.301 21.4673 138.556 21.9759C138.815 22.4844 138.944 23.0767 138.944 23.7528C138.944 24.429 138.815 25.0199 138.556 25.5256C138.301 26.0312 137.939 26.4247 137.47 26.706C137.001 26.9872 136.447 27.1278 135.808 27.1278ZM135.816 25.892C136.163 25.892 136.453 25.7969 136.686 25.6065C136.919 25.4134 137.092 25.1548 137.206 24.831C137.322 24.5071 137.38 24.1463 137.38 23.7486C137.38 23.348 137.322 22.9858 137.206 22.6619C137.092 22.3352 136.919 22.0753 136.686 21.8821C136.453 21.6889 136.163 21.5923 135.816 21.5923C135.461 21.5923 135.166 21.6889 134.93 21.8821C134.697 22.0753 134.522 22.3352 134.406 22.6619C134.292 22.9858 134.235 23.348 134.235 23.7486C134.235 24.1463 134.292 24.5071 134.406 24.831C134.522 25.1548 134.697 25.4134 134.93 25.6065C135.166 25.7969 135.461 25.892 135.816 25.892ZM144.425 24.2472V20.4545H145.968V27H144.472V25.8366H144.404C144.256 26.2031 144.013 26.5028 143.675 26.7358C143.34 26.9687 142.927 27.0852 142.435 27.0852C142.006 27.0852 141.627 26.9901 141.298 26.7997C140.971 26.6065 140.715 26.3267 140.531 25.9602C140.346 25.5909 140.254 25.1449 140.254 24.6222V20.4545H141.796V24.3835C141.796 24.7983 141.91 25.1278 142.137 25.3722C142.364 25.6165 142.663 25.7386 143.032 25.7386C143.259 25.7386 143.479 25.6832 143.692 25.5724C143.906 25.4616 144.08 25.2969 144.217 25.0781C144.356 24.8565 144.425 24.5795 144.425 24.2472ZM147.554 27V20.4545H149.05V21.5455H149.118C149.238 21.1676 149.442 20.8764 149.732 20.6719C150.025 20.4645 150.358 20.3608 150.733 20.3608C150.819 20.3608 150.914 20.3651 151.019 20.3736C151.127 20.3793 151.216 20.3892 151.287 20.4034V21.8224C151.222 21.7997 151.118 21.7798 150.976 21.7628C150.837 21.7429 150.702 21.733 150.571 21.733C150.29 21.733 150.037 21.794 149.813 21.9162C149.591 22.0355 149.417 22.2017 149.289 22.4148C149.161 22.6278 149.097 22.8736 149.097 23.152V27H147.554ZM154.898 27.1278C154.244 27.1278 153.683 26.9844 153.214 26.6974C152.749 26.4105 152.389 26.0142 152.136 25.5085C151.886 25 151.761 24.4148 151.761 23.7528C151.761 23.0881 151.889 22.5014 152.145 21.9929C152.401 21.4815 152.761 21.0838 153.227 20.7997C153.696 20.5128 154.25 20.3693 154.889 20.3693C155.42 20.3693 155.891 20.4673 156.3 20.6634C156.712 20.8565 157.04 21.1307 157.284 21.4858C157.528 21.8381 157.668 22.25 157.702 22.7216H156.227C156.168 22.4062 156.026 22.1435 155.801 21.9332C155.58 21.7202 155.283 21.6136 154.911 21.6136C154.595 21.6136 154.318 21.6989 154.08 21.8693C153.841 22.0369 153.655 22.2784 153.521 22.5938C153.391 22.9091 153.325 23.2869 153.325 23.7273C153.325 24.1733 153.391 24.5568 153.521 24.8778C153.652 25.196 153.835 25.4418 154.071 25.6151C154.31 25.7855 154.589 25.8707 154.911 25.8707C155.138 25.8707 155.341 25.8281 155.52 25.7429C155.702 25.6548 155.854 25.5284 155.976 25.3636C156.098 25.1989 156.182 24.9986 156.227 24.7628H157.702C157.665 25.2259 157.528 25.6364 157.293 25.9943C157.057 26.3494 156.736 26.6278 156.33 26.8295C155.923 27.0284 155.446 27.1278 154.898 27.1278ZM161.866 27.1278C161.21 27.1278 160.643 26.9915 160.166 26.7188C159.691 26.4432 159.326 26.054 159.071 25.5511C158.815 25.0455 158.687 24.4503 158.687 23.7656C158.687 23.0923 158.815 22.5014 159.071 21.9929C159.329 21.4815 159.69 21.0838 160.153 20.7997C160.616 20.5128 161.16 20.3693 161.785 20.3693C162.189 20.3693 162.569 20.4347 162.927 20.5653C163.288 20.6932 163.606 20.892 163.882 21.1619C164.16 21.4318 164.379 21.7756 164.538 22.1932C164.697 22.608 164.777 23.1023 164.777 23.6761V24.1491H159.412V23.1094H163.298C163.295 22.8139 163.231 22.5511 163.106 22.321C162.981 22.0881 162.806 21.9048 162.582 21.7713C162.36 21.6378 162.102 21.571 161.806 21.571C161.491 21.571 161.214 21.6477 160.975 21.8011C160.737 21.9517 160.551 22.1506 160.417 22.3977C160.287 22.642 160.22 22.9105 160.217 23.2031V24.1108C160.217 24.4915 160.287 24.8182 160.426 25.0909C160.565 25.3608 160.76 25.5682 161.01 25.7131C161.26 25.8551 161.552 25.9261 161.887 25.9261C162.112 25.9261 162.315 25.8949 162.497 25.8324C162.679 25.767 162.836 25.6719 162.97 25.5469C163.103 25.4219 163.204 25.267 163.272 25.0824L164.713 25.2443C164.622 25.625 164.449 25.9574 164.193 26.2415C163.94 26.5227 163.616 26.7415 163.221 26.8977C162.826 27.0511 162.375 27.1278 161.866 27.1278ZM171.255 22.1847L169.849 22.3381C169.809 22.196 169.739 22.0625 169.64 21.9375C169.543 21.8125 169.413 21.7116 169.248 21.6349C169.083 21.5582 168.881 21.5199 168.643 21.5199C168.322 21.5199 168.052 21.5895 167.833 21.7287C167.617 21.8679 167.511 22.0483 167.513 22.2699C167.511 22.4602 167.58 22.6151 167.722 22.7344C167.867 22.8537 168.106 22.9517 168.438 23.0284L169.555 23.267C170.174 23.4006 170.634 23.6122 170.935 23.902C171.239 24.1918 171.393 24.571 171.396 25.0398C171.393 25.4517 171.272 25.8153 171.033 26.1307C170.798 26.4432 170.469 26.6875 170.049 26.8636C169.629 27.0398 169.146 27.1278 168.6 27.1278C167.799 27.1278 167.154 26.9602 166.665 26.625C166.177 26.2869 165.886 25.8168 165.792 25.2145L167.296 25.0696C167.364 25.3651 167.509 25.5881 167.731 25.7386C167.952 25.8892 168.241 25.9645 168.596 25.9645C168.962 25.9645 169.256 25.8892 169.478 25.7386C169.702 25.5881 169.815 25.402 169.815 25.1804C169.815 24.9929 169.742 24.8381 169.597 24.7159C169.455 24.5937 169.234 24.5 168.933 24.4347L167.816 24.2003C167.188 24.0696 166.724 23.8494 166.423 23.5398C166.121 23.2273 165.972 22.8324 165.975 22.3551C165.972 21.9517 166.082 21.6023 166.303 21.3068C166.528 21.0085 166.839 20.7784 167.237 20.6165C167.637 20.4517 168.099 20.3693 168.621 20.3693C169.388 20.3693 169.992 20.5327 170.433 20.8594C170.876 21.1861 171.15 21.6278 171.255 22.1847Z" fill="#292D39"/>
<rect x="126" y="37" width="45" height="36" rx="4" fill="#61A8E8"/>
<path d="M140.964 57.2472V53.4545H142.507V60H141.011V58.8366H140.943C140.795 59.2031 140.553 59.5028 140.214 59.7358C139.879 59.9687 139.466 60.0852 138.974 60.0852C138.545 60.0852 138.166 59.9901 137.837 59.7997C137.51 59.6065 137.254 59.3267 137.07 58.9602C136.885 58.5909 136.793 58.1449 136.793 57.6222V53.4545H138.335V57.3835C138.335 57.7983 138.449 58.1278 138.676 58.3722C138.903 58.6165 139.202 58.7386 139.571 58.7386C139.798 58.7386 140.018 58.6832 140.232 58.5724C140.445 58.4616 140.619 58.2969 140.756 58.0781C140.895 57.8565 140.964 57.5795 140.964 57.2472ZM147.362 53.4545V54.6477H143.599V53.4545H147.362ZM144.528 51.8864H146.071V58.0312C146.071 58.2386 146.102 58.3977 146.164 58.5085C146.23 58.6165 146.315 58.6903 146.42 58.7301C146.525 58.7699 146.642 58.7898 146.77 58.7898C146.866 58.7898 146.954 58.7827 147.034 58.7685C147.116 58.7543 147.179 58.7415 147.221 58.7301L147.481 59.9361C147.399 59.9645 147.281 59.9957 147.127 60.0298C146.977 60.0639 146.792 60.0838 146.574 60.0895C146.187 60.1009 145.839 60.0426 145.529 59.9148C145.22 59.7841 144.974 59.5824 144.792 59.3097C144.613 59.0369 144.525 58.696 144.528 58.2869V51.8864ZM148.652 60V53.4545H150.195V60H148.652ZM149.428 52.5256C149.183 52.5256 148.973 52.4446 148.797 52.2827C148.621 52.1179 148.533 51.9205 148.533 51.6903C148.533 51.4574 148.621 51.2599 148.797 51.098C148.973 50.9332 149.183 50.8509 149.428 50.8509C149.675 50.8509 149.885 50.9332 150.058 51.098C150.234 51.2599 150.322 51.4574 150.322 51.6903C150.322 51.9205 150.234 52.1179 150.058 52.2827C149.885 52.4446 149.675 52.5256 149.428 52.5256ZM153.324 51.2727V60H151.781V51.2727H153.324ZM160.083 55.1847L158.677 55.3381C158.637 55.196 158.567 55.0625 158.468 54.9375C158.371 54.8125 158.241 54.7116 158.076 54.6349C157.911 54.5582 157.71 54.5199 157.471 54.5199C157.15 54.5199 156.88 54.5895 156.661 54.7287C156.445 54.8679 156.339 55.0483 156.342 55.2699C156.339 55.4602 156.408 55.6151 156.55 55.7344C156.695 55.8537 156.934 55.9517 157.266 56.0284L158.383 56.267C159.002 56.4006 159.462 56.6122 159.763 56.902C160.067 57.1918 160.221 57.571 160.224 58.0398C160.221 58.4517 160.1 58.8153 159.862 59.1307C159.626 59.4432 159.298 59.6875 158.877 59.8636C158.457 60.0398 157.974 60.1278 157.428 60.1278C156.627 60.1278 155.982 59.9602 155.494 59.625C155.005 59.2869 154.714 58.8168 154.62 58.2145L156.124 58.0696C156.192 58.3651 156.337 58.5881 156.559 58.7386C156.781 58.8892 157.069 58.9645 157.424 58.9645C157.79 58.9645 158.085 58.8892 158.306 58.7386C158.531 58.5881 158.643 58.402 158.643 58.1804C158.643 57.9929 158.57 57.8381 158.425 57.7159C158.283 57.5937 158.062 57.5 157.761 57.4347L156.644 57.2003C156.016 57.0696 155.552 56.8494 155.251 56.5398C154.95 56.2273 154.8 55.8324 154.803 55.3551C154.8 54.9517 154.91 54.6023 155.131 54.3068C155.356 54.0085 155.667 53.7784 156.065 53.6165C156.465 53.4517 156.927 53.3693 157.45 53.3693C158.217 53.3693 158.82 53.5327 159.261 53.8594C159.704 54.1861 159.978 54.6278 160.083 55.1847Z" fill="white"/>
<rect x="181" y="37" width="31" height="36" rx="4" fill="#8C61E8"/>
<path d="M193.335 51.2727V60H191.793V51.2727H193.335ZM194.922 60V53.4545H196.464V60H194.922ZM195.697 52.5256C195.453 52.5256 195.243 52.4446 195.066 52.2827C194.89 52.1179 194.802 51.9205 194.802 51.6903C194.802 51.4574 194.89 51.2599 195.066 51.098C195.243 50.9332 195.453 50.8509 195.697 50.8509C195.944 50.8509 196.154 50.9332 196.328 51.098C196.504 51.2599 196.592 51.4574 196.592 51.6903C196.592 51.9205 196.504 52.1179 196.328 52.2827C196.154 52.4446 195.944 52.5256 195.697 52.5256ZM198.119 60V51.2727H199.661V54.5369H199.725C199.805 54.3778 199.917 54.2088 200.062 54.0298C200.207 53.848 200.403 53.6932 200.65 53.5653C200.897 53.4347 201.212 53.3693 201.596 53.3693C202.102 53.3693 202.558 53.4986 202.964 53.7571C203.373 54.0128 203.697 54.392 203.935 54.8949C204.177 55.3949 204.298 56.0085 204.298 56.7358C204.298 57.4545 204.18 58.0653 203.944 58.5682C203.708 59.071 203.387 59.4545 202.981 59.7188C202.575 59.983 202.114 60.1151 201.6 60.1151C201.225 60.1151 200.914 60.0526 200.667 59.9276C200.42 59.8026 200.221 59.652 200.07 59.4759C199.923 59.2969 199.808 59.1278 199.725 58.9688H199.636V60H198.119ZM199.631 56.7273C199.631 57.1506 199.691 57.5213 199.81 57.8395C199.933 58.1577 200.107 58.4062 200.335 58.5852C200.565 58.7614 200.843 58.8494 201.17 58.8494C201.511 58.8494 201.796 58.7585 202.026 58.5767C202.256 58.392 202.43 58.1406 202.546 57.8224C202.665 57.5014 202.725 57.1364 202.725 56.7273C202.725 56.321 202.667 55.9602 202.55 55.6449C202.434 55.3295 202.261 55.0824 202.031 54.9034C201.8 54.7244 201.513 54.6349 201.17 54.6349C200.84 54.6349 200.56 54.7216 200.33 54.8949C200.1 55.0682 199.925 55.3111 199.806 55.6236C199.69 55.9361 199.631 56.304 199.631 56.7273Z" fill="white"/>
<rect x="28" y="37" width="88" height="36" rx="4" fill="#FFC662"/>
<path d="M38.6477 60.1278C37.9943 60.1278 37.4332 59.9844 36.9645 59.6974C36.4986 59.4105 36.1392 59.0142 35.8864 58.5085C35.6364 58 35.5114 57.4148 35.5114 56.7528C35.5114 56.0881 35.6392 55.5014 35.8949 54.9929C36.1506 54.4815 36.5114 54.0838 36.9773 53.7997C37.446 53.5128 38 53.3693 38.6392 53.3693C39.1705 53.3693 39.6406 53.4673 40.0497 53.6634C40.4616 53.8565 40.7898 54.1307 41.0341 54.4858C41.2784 54.8381 41.4176 55.25 41.4517 55.7216H39.9773C39.9176 55.4062 39.7756 55.1435 39.5511 54.9332C39.3295 54.7202 39.0327 54.6136 38.6605 54.6136C38.3452 54.6136 38.0682 54.6989 37.8295 54.8693C37.5909 55.0369 37.4048 55.2784 37.2713 55.5938C37.1406 55.9091 37.0753 56.2869 37.0753 56.7273C37.0753 57.1733 37.1406 57.5568 37.2713 57.8778C37.402 58.196 37.5852 58.4418 37.821 58.6151C38.0597 58.7855 38.3395 58.8707 38.6605 58.8707C38.8878 58.8707 39.0909 58.8281 39.2699 58.7429C39.4517 58.6548 39.6037 58.5284 39.7259 58.3636C39.848 58.1989 39.9318 57.9986 39.9773 57.7628H41.4517C41.4148 58.2259 41.2784 58.6364 41.0426 58.9943C40.8068 59.3494 40.4858 59.6278 40.0795 59.8295C39.6733 60.0284 39.196 60.1278 38.6477 60.1278ZM45.5735 60.1278C44.9343 60.1278 44.3803 59.9872 43.9116 59.706C43.4428 59.4247 43.0792 59.0312 42.8207 58.5256C42.565 58.0199 42.4371 57.429 42.4371 56.7528C42.4371 56.0767 42.565 55.4844 42.8207 54.9759C43.0792 54.4673 43.4428 54.0724 43.9116 53.7912C44.3803 53.5099 44.9343 53.3693 45.5735 53.3693C46.2127 53.3693 46.7667 53.5099 47.2354 53.7912C47.7042 54.0724 48.0664 54.4673 48.3221 54.9759C48.5806 55.4844 48.7099 56.0767 48.7099 56.7528C48.7099 57.429 48.5806 58.0199 48.3221 58.5256C48.0664 59.0312 47.7042 59.4247 47.2354 59.706C46.7667 59.9872 46.2127 60.1278 45.5735 60.1278ZM45.582 58.892C45.9286 58.892 46.2184 58.7969 46.4513 58.6065C46.6843 58.4134 46.8576 58.1548 46.9712 57.831C47.0877 57.5071 47.146 57.1463 47.146 56.7486C47.146 56.348 47.0877 55.9858 46.9712 55.6619C46.8576 55.3352 46.6843 55.0753 46.4513 54.8821C46.2184 54.6889 45.9286 54.5923 45.582 54.5923C45.2269 54.5923 44.9315 54.6889 44.6957 54.8821C44.4627 55.0753 44.288 55.3352 44.1715 55.6619C44.0579 55.9858 44.0011 56.348 44.0011 56.7486C44.0011 57.1463 44.0579 57.5071 44.1715 57.831C44.288 58.1548 44.4627 58.4134 44.6957 58.6065C44.9315 58.7969 45.2269 58.892 45.582 58.892ZM50.0192 60V53.4545H51.4936V54.5668H51.5703C51.7067 54.1918 51.9325 53.8991 52.2479 53.6889C52.5632 53.4759 52.9396 53.3693 53.3771 53.3693C53.8203 53.3693 54.1939 53.4773 54.4979 53.6932C54.8047 53.9062 55.0206 54.1974 55.1456 54.5668H55.2138C55.3587 54.2031 55.603 53.9134 55.9467 53.6974C56.2933 53.4787 56.7038 53.3693 57.1783 53.3693C57.7805 53.3693 58.272 53.5597 58.6527 53.9403C59.0334 54.321 59.2237 54.8764 59.2237 55.6065V60H57.6768V55.8452C57.6768 55.4389 57.5689 55.142 57.353 54.9545C57.1371 54.7642 56.8729 54.669 56.5604 54.669C56.1882 54.669 55.897 54.7855 55.6868 55.0185C55.4794 55.2486 55.3757 55.5483 55.3757 55.9176V60H53.8629V55.7812C53.8629 55.4432 53.7607 55.1733 53.5561 54.9716C53.3544 54.7699 53.0902 54.669 52.7635 54.669C52.5419 54.669 52.3402 54.7259 52.1584 54.8395C51.9766 54.9503 51.8317 55.108 51.7237 55.3125C51.6158 55.5142 51.5618 55.75 51.5618 56.0199V60H50.0192ZM60.7887 62.4545V53.4545H62.3058V54.5369H62.3952C62.4748 54.3778 62.587 54.2088 62.7319 54.0298C62.8768 53.848 63.0728 53.6932 63.32 53.5653C63.5671 53.4347 63.8825 53.3693 64.266 53.3693C64.7717 53.3693 65.2276 53.4986 65.6339 53.7571C66.043 54.0128 66.3668 54.392 66.6055 54.8949C66.8469 55.3949 66.9677 56.0085 66.9677 56.7358C66.9677 57.4545 66.8498 58.0653 66.614 58.5682C66.3782 59.071 66.0572 59.4545 65.6509 59.7188C65.2447 59.983 64.7844 60.1151 64.2702 60.1151C63.8952 60.1151 63.5842 60.0526 63.337 59.9276C63.0898 59.8026 62.891 59.652 62.7404 59.4759C62.5927 59.2969 62.4776 59.1278 62.3952 58.9688H62.3313V62.4545H60.7887ZM62.3015 56.7273C62.3015 57.1506 62.3612 57.5213 62.4805 57.8395C62.6026 58.1577 62.7773 58.4062 63.0046 58.5852C63.2347 58.7614 63.5131 58.8494 63.8398 58.8494C64.1808 58.8494 64.4663 58.7585 64.6964 58.5767C64.9265 58.392 65.0998 58.1406 65.2163 57.8224C65.3356 57.5014 65.3952 57.1364 65.3952 56.7273C65.3952 56.321 65.337 55.9602 65.2205 55.6449C65.104 55.3295 64.9308 55.0824 64.7006 54.9034C64.4705 54.7244 64.1836 54.6349 63.8398 54.6349C63.5103 54.6349 63.2305 54.7216 63.0004 54.8949C62.7702 55.0682 62.5955 55.3111 62.4762 55.6236C62.3597 55.9361 62.3015 56.304 62.3015 56.7273ZM71.1438 60.1278C70.5046 60.1278 69.9506 59.9872 69.4819 59.706C69.0131 59.4247 68.6495 59.0312 68.391 58.5256C68.1353 58.0199 68.0075 57.429 68.0075 56.7528C68.0075 56.0767 68.1353 55.4844 68.391 54.9759C68.6495 54.4673 69.0131 54.0724 69.4819 53.7912C69.9506 53.5099 70.5046 53.3693 71.1438 53.3693C71.783 53.3693 72.337 53.5099 72.8058 53.7912C73.2745 54.0724 73.6367 54.4673 73.8924 54.9759C74.1509 55.4844 74.2802 56.0767 74.2802 56.7528C74.2802 57.429 74.1509 58.0199 73.8924 58.5256C73.6367 59.0312 73.2745 59.4247 72.8058 59.706C72.337 59.9872 71.783 60.1278 71.1438 60.1278ZM71.1523 58.892C71.4989 58.892 71.7887 58.7969 72.0217 58.6065C72.2546 58.4134 72.4279 58.1548 72.5415 57.831C72.658 57.5071 72.7163 57.1463 72.7163 56.7486C72.7163 56.348 72.658 55.9858 72.5415 55.6619C72.4279 55.3352 72.2546 55.0753 72.0217 54.8821C71.7887 54.6889 71.4989 54.5923 71.1523 54.5923C70.7972 54.5923 70.5018 54.6889 70.266 54.8821C70.033 55.0753 69.8583 55.3352 69.7418 55.6619C69.6282 55.9858 69.5714 56.348 69.5714 56.7486C69.5714 57.1463 69.6282 57.5071 69.7418 57.831C69.8583 58.1548 70.033 58.4134 70.266 58.6065C70.5018 58.7969 70.7972 58.892 71.1523 58.892ZM77.1321 56.1648V60H75.5895V53.4545H77.0639V54.5668H77.1406C77.2912 54.2003 77.5313 53.9091 77.8608 53.6932C78.1932 53.4773 78.6037 53.3693 79.0923 53.3693C79.544 53.3693 79.9375 53.4659 80.2727 53.6591C80.6108 53.8523 80.8722 54.1321 81.0568 54.4986C81.2443 54.8651 81.3366 55.3097 81.3338 55.8324V60H79.7912V56.071C79.7912 55.6335 79.6776 55.2912 79.4503 55.044C79.2259 54.7969 78.9148 54.6733 78.517 54.6733C78.2472 54.6733 78.0071 54.733 77.7969 54.8523C77.5895 54.9687 77.4261 55.1378 77.3068 55.3594C77.1903 55.581 77.1321 55.8494 77.1321 56.1648ZM85.7997 60.1278C85.1435 60.1278 84.5767 59.9915 84.0994 59.7188C83.625 59.4432 83.2599 59.054 83.0043 58.5511C82.7486 58.0455 82.6207 57.4503 82.6207 56.7656C82.6207 56.0923 82.7486 55.5014 83.0043 54.9929C83.2628 54.4815 83.6236 54.0838 84.0866 53.7997C84.5497 53.5128 85.0938 53.3693 85.7188 53.3693C86.1222 53.3693 86.5028 53.4347 86.8608 53.5653C87.2216 53.6932 87.5398 53.892 87.8153 54.1619C88.0938 54.4318 88.3125 54.7756 88.4716 55.1932C88.6307 55.608 88.7102 56.1023 88.7102 56.6761V57.1491H83.3452V56.1094H87.2315C87.2287 55.8139 87.1648 55.5511 87.0398 55.321C86.9148 55.0881 86.7401 54.9048 86.5156 54.7713C86.294 54.6378 86.0355 54.571 85.7401 54.571C85.4247 54.571 85.1477 54.6477 84.9091 54.8011C84.6705 54.9517 84.4844 55.1506 84.3509 55.3977C84.2202 55.642 84.1534 55.9105 84.1506 56.2031V57.1108C84.1506 57.4915 84.2202 57.8182 84.3594 58.0909C84.4986 58.3608 84.6932 58.5682 84.9432 58.7131C85.1932 58.8551 85.4858 58.9261 85.821 58.9261C86.0455 58.9261 86.2486 58.8949 86.4304 58.8324C86.6122 58.767 86.7699 58.6719 86.9034 58.5469C87.0369 58.4219 87.1378 58.267 87.206 58.0824L88.6463 58.2443C88.5554 58.625 88.3821 58.9574 88.1264 59.2415C87.8736 59.5227 87.5497 59.7415 87.1548 59.8977C86.7599 60.0511 86.3082 60.1278 85.7997 60.1278ZM91.5579 56.1648V60H90.0153V53.4545H91.4897V54.5668H91.5664C91.717 54.2003 91.957 53.9091 92.2866 53.6932C92.619 53.4773 93.0295 53.3693 93.5181 53.3693C93.9698 53.3693 94.3633 53.4659 94.6985 53.6591C95.0366 53.8523 95.2979 54.1321 95.4826 54.4986C95.6701 54.8651 95.7624 55.3097 95.7596 55.8324V60H94.217V56.071C94.217 55.6335 94.1033 55.2912 93.8761 55.044C93.6516 54.7969 93.3406 54.6733 92.9428 54.6733C92.6729 54.6733 92.4329 54.733 92.2227 54.8523C92.0153 54.9687 91.8519 55.1378 91.7326 55.3594C91.6161 55.581 91.5579 55.8494 91.5579 56.1648ZM100.596 53.4545V54.6477H96.8335V53.4545H100.596ZM97.7624 51.8864H99.305V58.0312C99.305 58.2386 99.3363 58.3977 99.3988 58.5085C99.4641 58.6165 99.5494 58.6903 99.6545 58.7301C99.7596 58.7699 99.8761 58.7898 100.004 58.7898C100.1 58.7898 100.189 58.7827 100.268 58.7685C100.35 58.7543 100.413 58.7415 100.456 58.7301L100.716 59.9361C100.633 59.9645 100.515 59.9957 100.362 60.0298C100.211 60.0639 100.027 60.0838 99.8079 60.0895C99.4215 60.1009 99.0735 60.0426 98.7638 59.9148C98.4542 59.7841 98.2085 59.5824 98.0266 59.3097C97.8477 59.0369 97.7596 58.696 97.7624 58.2869V51.8864ZM106.966 55.1847L105.56 55.3381C105.52 55.196 105.45 55.0625 105.351 54.9375C105.254 54.8125 105.124 54.7116 104.959 54.6349C104.794 54.5582 104.592 54.5199 104.354 54.5199C104.033 54.5199 103.763 54.5895 103.544 54.7287C103.328 54.8679 103.222 55.0483 103.224 55.2699C103.222 55.4602 103.291 55.6151 103.433 55.7344C103.578 55.8537 103.817 55.9517 104.149 56.0284L105.266 56.267C105.885 56.4006 106.345 56.6122 106.646 56.902C106.95 57.1918 107.104 57.571 107.107 58.0398C107.104 58.4517 106.983 58.8153 106.744 59.1307C106.509 59.4432 106.18 59.6875 105.76 59.8636C105.339 60.0398 104.857 60.1278 104.311 60.1278C103.51 60.1278 102.865 59.9602 102.376 59.625C101.888 59.2869 101.597 58.8168 101.503 58.2145L103.007 58.0696C103.075 58.3651 103.22 58.5881 103.442 58.7386C103.663 58.8892 103.952 58.9645 104.307 58.9645C104.673 58.9645 104.967 58.8892 105.189 58.7386C105.413 58.5881 105.526 58.402 105.526 58.1804C105.526 57.9929 105.453 57.8381 105.308 57.7159C105.166 57.5937 104.945 57.5 104.643 57.4347L103.527 57.2003C102.899 57.0696 102.435 56.8494 102.134 56.5398C101.832 56.2273 101.683 55.8324 101.686 55.3551C101.683 54.9517 101.793 54.6023 102.014 54.3068C102.239 54.0085 102.55 53.7784 102.947 53.6165C103.348 53.4517 103.81 53.3693 104.332 53.3693C105.099 53.3693 105.703 53.5327 106.143 53.8594C106.587 54.1861 106.861 54.6278 106.966 55.1847Z" fill="white"/>
<rect x="10" y="108" width="221" height="75" rx="4" fill="#D3D4D7"/>
<path d="M97.7926 127.812V118.812H99.3097V119.894H99.3991C99.4787 119.735 99.5909 119.566 99.7358 119.387C99.8807 119.205 100.077 119.05 100.324 118.923C100.571 118.792 100.886 118.726 101.27 118.726C101.776 118.726 102.232 118.856 102.638 119.114C103.047 119.37 103.371 119.749 103.609 120.252C103.851 120.752 103.972 121.366 103.972 122.093C103.972 122.812 103.854 123.423 103.618 123.925C103.382 124.428 103.061 124.812 102.655 125.076C102.249 125.34 101.788 125.472 101.274 125.472C100.899 125.472 100.588 125.41 100.341 125.285C100.094 125.16 99.8949 125.009 99.7443 124.833C99.5966 124.654 99.4815 124.485 99.3991 124.326H99.3352V127.812H97.7926ZM99.3054 122.084C99.3054 122.508 99.3651 122.878 99.4844 123.197C99.6065 123.515 99.7813 123.763 100.009 123.942C100.239 124.119 100.517 124.207 100.844 124.207C101.185 124.207 101.47 124.116 101.7 123.934C101.93 123.749 102.104 123.498 102.22 123.18C102.339 122.859 102.399 122.494 102.399 122.084C102.399 121.678 102.341 121.317 102.224 121.002C102.108 120.687 101.935 120.44 101.705 120.261C101.474 120.082 101.188 119.992 100.844 119.992C100.514 119.992 100.234 120.079 100.004 120.252C99.7741 120.425 99.5994 120.668 99.4801 120.981C99.3636 121.293 99.3054 121.661 99.3054 122.084ZM105.293 125.357V118.812H106.788V119.903H106.857C106.976 119.525 107.18 119.234 107.47 119.029C107.763 118.822 108.097 118.718 108.472 118.718C108.557 118.718 108.652 118.722 108.757 118.731C108.865 118.736 108.955 118.746 109.026 118.761V120.18C108.96 120.157 108.857 120.137 108.714 120.12C108.575 120.1 108.44 120.09 108.31 120.09C108.028 120.09 107.776 120.151 107.551 120.273C107.33 120.393 107.155 120.559 107.027 120.772C106.899 120.985 106.835 121.231 106.835 121.509V125.357H105.293ZM112.636 125.485C111.997 125.485 111.443 125.344 110.974 125.063C110.505 124.782 110.142 124.388 109.883 123.883C109.627 123.377 109.5 122.786 109.5 122.11C109.5 121.434 109.627 120.842 109.883 120.333C110.142 119.825 110.505 119.43 110.974 119.148C111.443 118.867 111.997 118.726 112.636 118.726C113.275 118.726 113.829 118.867 114.298 119.148C114.767 119.43 115.129 119.825 115.385 120.333C115.643 120.842 115.772 121.434 115.772 122.11C115.772 122.786 115.643 123.377 115.385 123.883C115.129 124.388 114.767 124.782 114.298 125.063C113.829 125.344 113.275 125.485 112.636 125.485ZM112.645 124.249C112.991 124.249 113.281 124.154 113.514 123.964C113.747 123.771 113.92 123.512 114.034 123.188C114.15 122.864 114.208 122.503 114.208 122.106C114.208 121.705 114.15 121.343 114.034 121.019C113.92 120.692 113.747 120.432 113.514 120.239C113.281 120.046 112.991 119.95 112.645 119.95C112.289 119.95 111.994 120.046 111.758 120.239C111.525 120.432 111.35 120.692 111.234 121.019C111.12 121.343 111.064 121.705 111.064 122.106C111.064 122.503 111.12 122.864 111.234 123.188C111.35 123.512 111.525 123.771 111.758 123.964C111.994 124.154 112.289 124.249 112.645 124.249ZM117.082 118.812H118.624V125.732C118.624 126.204 118.535 126.593 118.356 126.9C118.177 127.207 117.918 127.435 117.58 127.586C117.242 127.736 116.832 127.812 116.349 127.812C116.292 127.812 116.239 127.81 116.191 127.807C116.143 127.807 116.09 127.806 116.033 127.803V126.546C116.076 126.549 116.114 126.55 116.148 126.55C116.183 126.553 116.218 126.555 116.255 126.555C116.55 126.555 116.762 126.482 116.89 126.337C117.018 126.195 117.082 125.986 117.082 125.711V118.812ZM117.849 117.883C117.602 117.883 117.39 117.802 117.214 117.64C117.04 117.475 116.954 117.278 116.954 117.048C116.954 116.815 117.04 116.617 117.214 116.455C117.39 116.29 117.602 116.208 117.849 116.208C118.093 116.208 118.302 116.29 118.475 116.455C118.651 116.617 118.739 116.815 118.739 117.048C118.739 117.278 118.651 117.475 118.475 117.64C118.302 117.802 118.093 117.883 117.849 117.883ZM123.108 125.485C122.452 125.485 121.885 125.349 121.408 125.076C120.934 124.8 120.569 124.411 120.313 123.908C120.057 123.403 119.929 122.807 119.929 122.123C119.929 121.45 120.057 120.859 120.313 120.35C120.571 119.839 120.932 119.441 121.395 119.157C121.858 118.87 122.402 118.726 123.027 118.726C123.431 118.726 123.811 118.792 124.169 118.923C124.53 119.05 124.848 119.249 125.124 119.519C125.402 119.789 125.621 120.133 125.78 120.55C125.939 120.965 126.019 121.459 126.019 122.033V122.506H120.654V121.467H124.54C124.537 121.171 124.473 120.908 124.348 120.678C124.223 120.445 124.049 120.262 123.824 120.128C123.603 119.995 123.344 119.928 123.049 119.928C122.733 119.928 122.456 120.005 122.218 120.158C121.979 120.309 121.793 120.508 121.659 120.755C121.529 120.999 121.462 121.268 121.459 121.56V122.468C121.459 122.849 121.529 123.175 121.668 123.448C121.807 123.718 122.002 123.925 122.252 124.07C122.502 124.212 122.794 124.283 123.13 124.283C123.354 124.283 123.557 124.252 123.739 124.19C123.921 124.124 124.078 124.029 124.212 123.904C124.346 123.779 124.446 123.624 124.515 123.44L125.955 123.601C125.864 123.982 125.691 124.315 125.435 124.599C125.182 124.88 124.858 125.099 124.463 125.255C124.069 125.408 123.617 125.485 123.108 125.485ZM130.179 125.485C129.526 125.485 128.964 125.342 128.496 125.055C128.03 124.768 127.67 124.371 127.418 123.866C127.168 123.357 127.043 122.772 127.043 122.11C127.043 121.445 127.17 120.859 127.426 120.35C127.682 119.839 128.043 119.441 128.509 119.157C128.977 118.87 129.531 118.726 130.17 118.726C130.702 118.726 131.172 118.825 131.581 119.021C131.993 119.214 132.321 119.488 132.565 119.843C132.81 120.195 132.949 120.607 132.983 121.079H131.509C131.449 120.763 131.307 120.501 131.082 120.29C130.861 120.077 130.564 119.971 130.192 119.971C129.876 119.971 129.599 120.056 129.361 120.226C129.122 120.394 128.936 120.636 128.803 120.951C128.672 121.266 128.607 121.644 128.607 122.084C128.607 122.53 128.672 122.914 128.803 123.235C128.933 123.553 129.116 123.799 129.352 123.972C129.591 124.143 129.871 124.228 130.192 124.228C130.419 124.228 130.622 124.185 130.801 124.1C130.983 124.012 131.135 123.886 131.257 123.721C131.379 123.556 131.463 123.356 131.509 123.12H132.983C132.946 123.583 132.81 123.994 132.574 124.351C132.338 124.707 132.017 124.985 131.611 125.187C131.205 125.386 130.727 125.485 130.179 125.485ZM137.518 118.812V120.005H133.755V118.812H137.518ZM134.684 117.244H136.227V123.388C136.227 123.596 136.258 123.755 136.321 123.866C136.386 123.974 136.471 124.048 136.576 124.087C136.681 124.127 136.798 124.147 136.926 124.147C137.022 124.147 137.11 124.14 137.19 124.126C137.272 124.111 137.335 124.099 137.377 124.087L137.637 125.293C137.555 125.322 137.437 125.353 137.284 125.387C137.133 125.421 136.949 125.441 136.73 125.447C136.343 125.458 135.995 125.4 135.686 125.272C135.376 125.141 135.13 124.94 134.949 124.667C134.77 124.394 134.681 124.053 134.684 123.644V117.244ZM143.888 120.542L142.482 120.695C142.442 120.553 142.372 120.42 142.273 120.295C142.176 120.17 142.045 120.069 141.881 119.992C141.716 119.915 141.514 119.877 141.276 119.877C140.955 119.877 140.685 119.947 140.466 120.086C140.25 120.225 140.143 120.405 140.146 120.627C140.143 120.817 140.213 120.972 140.355 121.092C140.5 121.211 140.739 121.309 141.071 121.386L142.188 121.624C142.807 121.758 143.267 121.969 143.568 122.259C143.872 122.549 144.026 122.928 144.028 123.397C144.026 123.809 143.905 124.173 143.666 124.488C143.43 124.8 143.102 125.045 142.682 125.221C142.261 125.397 141.778 125.485 141.233 125.485C140.432 125.485 139.787 125.317 139.298 124.982C138.81 124.644 138.518 124.174 138.425 123.572L139.929 123.427C139.997 123.722 140.142 123.945 140.364 124.096C140.585 124.246 140.874 124.322 141.229 124.322C141.595 124.322 141.889 124.246 142.111 124.096C142.335 123.945 142.447 123.759 142.447 123.538C142.447 123.35 142.375 123.195 142.23 123.073C142.088 122.951 141.866 122.857 141.565 122.792L140.449 122.557C139.821 122.427 139.357 122.207 139.055 121.897C138.754 121.584 138.605 121.19 138.608 120.712C138.605 120.309 138.714 119.959 138.936 119.664C139.161 119.366 139.472 119.136 139.869 118.974C140.27 118.809 140.732 118.726 141.254 118.726C142.021 118.726 142.625 118.89 143.065 119.217C143.509 119.543 143.783 119.985 143.888 120.542Z" fill="#292D39"/>
<rect x="25" y="140" width="55" height="36" rx="4" fill="#70AF40"/>
<path d="M39.9815 163H38.294L41.3665 154.273H43.3182L46.3949 163H44.7074L42.3764 156.062H42.3082L39.9815 163ZM40.0369 159.578H44.6392V160.848H40.0369V159.578ZM47.4762 165.455V156.455H48.9933V157.537H49.0827C49.1623 157.378 49.2745 157.209 49.4194 157.03C49.5643 156.848 49.7603 156.693 50.0075 156.565C50.2546 156.435 50.57 156.369 50.9535 156.369C51.4592 156.369 51.9151 156.499 52.3214 156.757C52.7305 157.013 53.0543 157.392 53.293 157.895C53.5344 158.395 53.6552 159.009 53.6552 159.736C53.6552 160.455 53.5373 161.065 53.3015 161.568C53.0657 162.071 52.7447 162.455 52.3384 162.719C51.9322 162.983 51.4719 163.115 50.9577 163.115C50.5827 163.115 50.2717 163.053 50.0245 162.928C49.7773 162.803 49.5785 162.652 49.4279 162.476C49.2802 162.297 49.1651 162.128 49.0827 161.969H49.0188V165.455H47.4762ZM48.989 159.727C48.989 160.151 49.0487 160.521 49.168 160.839C49.2901 161.158 49.4648 161.406 49.6921 161.585C49.9222 161.761 50.2006 161.849 50.5273 161.849C50.8683 161.849 51.1538 161.759 51.3839 161.577C51.614 161.392 51.7873 161.141 51.9038 160.822C52.0231 160.501 52.0827 160.136 52.0827 159.727C52.0827 159.321 52.0245 158.96 51.908 158.645C51.7915 158.33 51.6183 158.082 51.3881 157.903C51.158 157.724 50.8711 157.635 50.5273 157.635C50.1978 157.635 49.918 157.722 49.6879 157.895C49.4577 158.068 49.283 158.311 49.1637 158.624C49.0472 158.936 48.989 159.304 48.989 159.727ZM54.9762 165.455V156.455H56.4933V157.537H56.5827C56.6623 157.378 56.7745 157.209 56.9194 157.03C57.0643 156.848 57.2603 156.693 57.5075 156.565C57.7546 156.435 58.07 156.369 58.4535 156.369C58.9592 156.369 59.4151 156.499 59.8214 156.757C60.2305 157.013 60.5543 157.392 60.793 157.895C61.0344 158.395 61.1552 159.009 61.1552 159.736C61.1552 160.455 61.0373 161.065 60.8015 161.568C60.5657 162.071 60.2447 162.455 59.8384 162.719C59.4322 162.983 58.9719 163.115 58.4577 163.115C58.0827 163.115 57.7717 163.053 57.5245 162.928C57.2773 162.803 57.0785 162.652 56.9279 162.476C56.7802 162.297 56.6651 162.128 56.5827 161.969H56.5188V165.455H54.9762ZM56.489 159.727C56.489 160.151 56.5487 160.521 56.668 160.839C56.7901 161.158 56.9648 161.406 57.1921 161.585C57.4222 161.761 57.7006 161.849 58.0273 161.849C58.3683 161.849 58.6538 161.759 58.8839 161.577C59.114 161.392 59.2873 161.141 59.4038 160.822C59.5231 160.501 59.5827 160.136 59.5827 159.727C59.5827 159.321 59.5245 158.96 59.408 158.645C59.2915 158.33 59.1183 158.082 58.8881 157.903C58.658 157.724 58.3711 157.635 58.0273 157.635C57.6978 157.635 57.418 157.722 57.1879 157.895C56.9577 158.068 56.783 158.311 56.6637 158.624C56.5472 158.936 56.489 159.304 56.489 159.727ZM66.0089 154.273V163H64.4279V155.811H64.3768L62.3356 157.115V155.666L64.5046 154.273H66.0089Z" fill="white"/>
<rect x="93" y="140" width="55" height="36" rx="4" fill="#70AF40"/>
<path d="M107.982 163H106.294L109.366 154.273H111.318L114.395 163H112.707L110.376 156.062H110.308L107.982 163ZM108.037 159.578H112.639V160.848H108.037V159.578ZM115.476 165.455V156.455H116.993V157.537H117.083C117.162 157.378 117.275 157.209 117.419 157.03C117.564 156.848 117.76 156.693 118.007 156.565C118.255 156.435 118.57 156.369 118.953 156.369C119.459 156.369 119.915 156.499 120.321 156.757C120.73 157.013 121.054 157.392 121.293 157.895C121.534 158.395 121.655 159.009 121.655 159.736C121.655 160.455 121.537 161.065 121.301 161.568C121.066 162.071 120.745 162.455 120.338 162.719C119.932 162.983 119.472 163.115 118.958 163.115C118.583 163.115 118.272 163.053 118.025 162.928C117.777 162.803 117.578 162.652 117.428 162.476C117.28 162.297 117.165 162.128 117.083 161.969H117.019V165.455H115.476ZM116.989 159.727C116.989 160.151 117.049 160.521 117.168 160.839C117.29 161.158 117.465 161.406 117.692 161.585C117.922 161.761 118.201 161.849 118.527 161.849C118.868 161.849 119.154 161.759 119.384 161.577C119.614 161.392 119.787 161.141 119.904 160.822C120.023 160.501 120.083 160.136 120.083 159.727C120.083 159.321 120.025 158.96 119.908 158.645C119.792 158.33 119.618 158.082 119.388 157.903C119.158 157.724 118.871 157.635 118.527 157.635C118.198 157.635 117.918 157.722 117.688 157.895C117.458 158.068 117.283 158.311 117.164 158.624C117.047 158.936 116.989 159.304 116.989 159.727ZM122.976 165.455V156.455H124.493V157.537H124.583C124.662 157.378 124.775 157.209 124.919 157.03C125.064 156.848 125.26 156.693 125.507 156.565C125.755 156.435 126.07 156.369 126.453 156.369C126.959 156.369 127.415 156.499 127.821 156.757C128.23 157.013 128.554 157.392 128.793 157.895C129.034 158.395 129.155 159.009 129.155 159.736C129.155 160.455 129.037 161.065 128.801 161.568C128.566 162.071 128.245 162.455 127.838 162.719C127.432 162.983 126.972 163.115 126.458 163.115C126.083 163.115 125.772 163.053 125.525 162.928C125.277 162.803 125.078 162.652 124.928 162.476C124.78 162.297 124.665 162.128 124.583 161.969H124.519V165.455H122.976ZM124.489 159.727C124.489 160.151 124.549 160.521 124.668 160.839C124.79 161.158 124.965 161.406 125.192 161.585C125.422 161.761 125.701 161.849 126.027 161.849C126.368 161.849 126.654 161.759 126.884 161.577C127.114 161.392 127.287 161.141 127.404 160.822C127.523 160.501 127.583 160.136 127.583 159.727C127.583 159.321 127.525 158.96 127.408 158.645C127.292 158.33 127.118 158.082 126.888 157.903C126.658 157.724 126.371 157.635 126.027 157.635C125.698 157.635 125.418 157.722 125.188 157.895C124.958 158.068 124.783 158.311 124.664 158.624C124.547 158.936 124.489 159.304 124.489 159.727ZM130.459 163V161.858L133.489 158.888C133.779 158.595 134.02 158.335 134.213 158.108C134.407 157.881 134.551 157.661 134.648 157.447C134.745 157.234 134.793 157.007 134.793 156.766C134.793 156.49 134.73 156.254 134.605 156.058C134.48 155.859 134.309 155.706 134.09 155.598C133.871 155.49 133.623 155.436 133.344 155.436C133.057 155.436 132.806 155.496 132.59 155.615C132.374 155.732 132.206 155.898 132.087 156.114C131.971 156.33 131.912 156.587 131.912 156.885H130.408C130.408 156.331 130.534 155.849 130.787 155.44C131.04 155.031 131.388 154.714 131.831 154.49C132.277 154.266 132.789 154.153 133.365 154.153C133.951 154.153 134.465 154.263 134.908 154.482C135.351 154.7 135.695 155 135.939 155.381C136.186 155.761 136.31 156.196 136.31 156.685C136.31 157.011 136.248 157.332 136.123 157.648C135.998 157.963 135.777 158.312 135.462 158.696C135.15 159.08 134.711 159.544 134.145 160.089L132.641 161.619V161.679H136.442V163H130.459Z" fill="white"/>
<rect x="161" y="140" width="55" height="36" rx="4" fill="#70AF40"/>
<path d="M175.982 163H174.294L177.366 154.273H179.318L182.395 163H180.707L178.376 156.062H178.308L175.982 163ZM176.037 159.578H180.639V160.848H176.037V159.578ZM183.476 165.455V156.455H184.993V157.537H185.083C185.162 157.378 185.275 157.209 185.419 157.03C185.564 156.848 185.76 156.693 186.007 156.565C186.255 156.435 186.57 156.369 186.953 156.369C187.459 156.369 187.915 156.499 188.321 156.757C188.73 157.013 189.054 157.392 189.293 157.895C189.534 158.395 189.655 159.009 189.655 159.736C189.655 160.455 189.537 161.065 189.301 161.568C189.066 162.071 188.745 162.455 188.338 162.719C187.932 162.983 187.472 163.115 186.958 163.115C186.583 163.115 186.272 163.053 186.025 162.928C185.777 162.803 185.578 162.652 185.428 162.476C185.28 162.297 185.165 162.128 185.083 161.969H185.019V165.455H183.476ZM184.989 159.727C184.989 160.151 185.049 160.521 185.168 160.839C185.29 161.158 185.465 161.406 185.692 161.585C185.922 161.761 186.201 161.849 186.527 161.849C186.868 161.849 187.154 161.759 187.384 161.577C187.614 161.392 187.787 161.141 187.904 160.822C188.023 160.501 188.083 160.136 188.083 159.727C188.083 159.321 188.025 158.96 187.908 158.645C187.792 158.33 187.618 158.082 187.388 157.903C187.158 157.724 186.871 157.635 186.527 157.635C186.198 157.635 185.918 157.722 185.688 157.895C185.458 158.068 185.283 158.311 185.164 158.624C185.047 158.936 184.989 159.304 184.989 159.727ZM190.976 165.455V156.455H192.493V157.537H192.583C192.662 157.378 192.775 157.209 192.919 157.03C193.064 156.848 193.26 156.693 193.507 156.565C193.755 156.435 194.07 156.369 194.453 156.369C194.959 156.369 195.415 156.499 195.821 156.757C196.23 157.013 196.554 157.392 196.793 157.895C197.034 158.395 197.155 159.009 197.155 159.736C197.155 160.455 197.037 161.065 196.801 161.568C196.566 162.071 196.245 162.455 195.838 162.719C195.432 162.983 194.972 163.115 194.458 163.115C194.083 163.115 193.772 163.053 193.525 162.928C193.277 162.803 193.078 162.652 192.928 162.476C192.78 162.297 192.665 162.128 192.583 161.969H192.519V165.455H190.976ZM192.489 159.727C192.489 160.151 192.549 160.521 192.668 160.839C192.79 161.158 192.965 161.406 193.192 161.585C193.422 161.761 193.701 161.849 194.027 161.849C194.368 161.849 194.654 161.759 194.884 161.577C195.114 161.392 195.287 161.141 195.404 160.822C195.523 160.501 195.583 160.136 195.583 159.727C195.583 159.321 195.525 158.96 195.408 158.645C195.292 158.33 195.118 158.082 194.888 157.903C194.658 157.724 194.371 157.635 194.027 157.635C193.698 157.635 193.418 157.722 193.188 157.895C192.958 158.068 192.783 158.311 192.664 158.624C192.547 158.936 192.489 159.304 192.489 159.727ZM201.591 163.119C200.978 163.119 200.432 163.014 199.955 162.804C199.48 162.594 199.105 162.301 198.83 161.926C198.554 161.551 198.408 161.118 198.391 160.626H199.993C200.007 160.862 200.086 161.068 200.228 161.244C200.37 161.418 200.559 161.553 200.794 161.649C201.03 161.746 201.294 161.794 201.587 161.794C201.9 161.794 202.176 161.74 202.418 161.632C202.659 161.521 202.848 161.368 202.985 161.172C203.121 160.976 203.188 160.75 203.185 160.494C203.188 160.23 203.12 159.997 202.98 159.795C202.841 159.594 202.64 159.436 202.375 159.322C202.114 159.209 201.799 159.152 201.429 159.152H200.658V157.933H201.429C201.733 157.933 201.999 157.881 202.226 157.776C202.456 157.67 202.637 157.523 202.767 157.332C202.898 157.139 202.962 156.916 202.959 156.663C202.962 156.416 202.907 156.202 202.793 156.02C202.682 155.835 202.525 155.692 202.32 155.589C202.118 155.487 201.881 155.436 201.608 155.436C201.341 155.436 201.094 155.484 200.867 155.581C200.64 155.678 200.456 155.815 200.317 155.994C200.178 156.17 200.104 156.381 200.096 156.625H198.574C198.586 156.136 198.726 155.707 198.996 155.338C199.269 154.966 199.632 154.676 200.087 154.469C200.542 154.259 201.051 154.153 201.617 154.153C202.199 154.153 202.705 154.263 203.134 154.482C203.566 154.697 203.9 154.989 204.135 155.355C204.371 155.722 204.489 156.126 204.489 156.57C204.492 157.061 204.347 157.473 204.054 157.805C203.765 158.138 203.384 158.355 202.912 158.457V158.526C203.526 158.611 203.996 158.838 204.323 159.207C204.652 159.574 204.816 160.03 204.813 160.575C204.813 161.064 204.674 161.501 204.395 161.888C204.12 162.271 203.739 162.572 203.253 162.791C202.77 163.01 202.216 163.119 201.591 163.119Z" fill="white"/>
<path d="M121.502 85C121.502 84.7239 121.278 84.5 121.002 84.5C120.726 84.5 120.502 84.7239 120.502 85L121.502 85ZM121.002 101L123.889 96L118.115 96L121.002 101ZM120.502 85L120.502 96.5L121.502 96.5L121.502 85L120.502 85Z" fill="#9DA3AF"/>
<path d="M135.5 85C135.5 84.7239 135.276 84.5 135 84.5C134.724 84.5 134.5 84.7239 134.5 85L135.5 85ZM135 101L137.887 96L132.113 96L135 101ZM134.5 85L134.5 96.5L135.5 96.5L135.5 85L134.5 85Z" fill="#9DA3AF"/>
<path d="M106.5 85C106.5 84.7239 106.276 84.5 106 84.5C105.724 84.5 105.5 84.7239 105.5 85H106.5ZM106 101L108.887 96H103.113L106 101ZM105.5 85V96.5H106.5V85H105.5Z" fill="#9DA3AF"/>
</svg>
