<svg width="263" height="250" viewBox="0 0 263 250" fill="none" xmlns="http://www.w3.org/2000/svg">
<rect x="0.5" y="0.5" width="262" height="249" rx="7.5" stroke="#929292" stroke-dasharray="2 2"/>
<rect x="9" y="9" width="111" height="110" rx="4" fill="#D3D4D7"/>
<path d="M43.7926 27.8544V18.8544H45.3097V19.9368H45.3991C45.4787 19.7777 45.5909 19.6087 45.7358 19.4297C45.8807 19.2479 46.0767 19.0931 46.3239 18.9652C46.571 18.8346 46.8864 18.7692 47.2699 18.7692C47.7756 18.7692 48.2315 18.8985 48.6378 19.157C49.0469 19.4127 49.3707 19.7919 49.6094 20.2948C49.8509 20.7948 49.9716 21.4084 49.9716 22.1357C49.9716 22.8544 49.8537 23.4652 49.6179 23.9681C49.3821 24.4709 49.0611 24.8544 48.6548 25.1187C48.2486 25.3829 47.7884 25.515 47.2741 25.515C46.8991 25.515 46.5881 25.4525 46.3409 25.3275C46.0938 25.2025 45.8949 25.0519 45.7443 24.8758C45.5966 24.6968 45.4815 24.5277 45.3991 24.3687H45.3352V27.8544H43.7926ZM45.3054 22.1272C45.3054 22.5505 45.3651 22.9212 45.4844 23.2394C45.6065 23.5576 45.7813 23.8062 46.0085 23.9851C46.2386 24.1613 46.517 24.2493 46.8438 24.2493C47.1847 24.2493 47.4702 24.1584 47.7003 23.9766C47.9304 23.7919 48.1037 23.5405 48.2202 23.2223C48.3395 22.9013 48.3991 22.5363 48.3991 22.1272C48.3991 21.7209 48.3409 21.3601 48.2244 21.0448C48.108 20.7294 47.9347 20.4823 47.7045 20.3033C47.4744 20.1243 47.1875 20.0348 46.8438 20.0348C46.5142 20.0348 46.2344 20.1215 46.0043 20.2948C45.7741 20.4681 45.5994 20.711 45.4801 21.0235C45.3636 21.336 45.3054 21.7039 45.3054 22.1272ZM51.2926 25.3999V18.8544H52.7884V19.9454H52.8565C52.9759 19.5675 53.1804 19.2763 53.4702 19.0718C53.7628 18.8644 54.0966 18.7607 54.4716 18.7607C54.5568 18.7607 54.652 18.765 54.7571 18.7735C54.8651 18.7792 54.9545 18.7891 55.0256 18.8033V20.2223C54.9602 20.1996 54.8565 20.1797 54.7145 20.1627C54.5753 20.1428 54.4403 20.1329 54.3097 20.1329C54.0284 20.1329 53.7756 20.1939 53.5511 20.3161C53.3295 20.4354 53.1548 20.6016 53.027 20.8147C52.8991 21.0277 52.8352 21.2735 52.8352 21.5519V25.3999H51.2926ZM58.636 25.5277C57.9968 25.5277 57.4428 25.3871 56.9741 25.1059C56.5053 24.8246 56.1417 24.4312 55.8832 23.9255C55.6275 23.4198 55.4996 22.8289 55.4996 22.1527C55.4996 21.4766 55.6275 20.8843 55.8832 20.3758C56.1417 19.8672 56.5053 19.4723 56.9741 19.1911C57.4428 18.9098 57.9968 18.7692 58.636 18.7692C59.2752 18.7692 59.8292 18.9098 60.2979 19.1911C60.7667 19.4723 61.1289 19.8672 61.3846 20.3758C61.6431 20.8843 61.7724 21.4766 61.7724 22.1527C61.7724 22.8289 61.6431 23.4198 61.3846 23.9255C61.1289 24.4312 60.7667 24.8246 60.2979 25.1059C59.8292 25.3871 59.2752 25.5277 58.636 25.5277ZM58.6445 24.2919C58.9911 24.2919 59.2809 24.1968 59.5138 24.0064C59.7468 23.8133 59.9201 23.5547 60.0337 23.2309C60.1502 22.907 60.2085 22.5462 60.2085 22.1485C60.2085 21.7479 60.1502 21.3857 60.0337 21.0618C59.9201 20.7351 59.7468 20.4752 59.5138 20.282C59.2809 20.0888 58.9911 19.9922 58.6445 19.9922C58.2894 19.9922 57.994 20.0888 57.7582 20.282C57.5252 20.4752 57.3505 20.7351 57.234 21.0618C57.1204 21.3857 57.0636 21.7479 57.0636 22.1485C57.0636 22.5462 57.1204 22.907 57.234 23.2309C57.3505 23.5547 57.5252 23.8133 57.7582 24.0064C57.994 24.1968 58.2894 24.2919 58.6445 24.2919ZM63.0817 18.8544H64.6243V25.7749C64.6243 26.2465 64.5348 26.6357 64.3558 26.9425C64.1768 27.2493 63.9183 27.478 63.5803 27.6286C63.2422 27.7792 62.8317 27.8544 62.3487 27.8544C62.2919 27.8544 62.2393 27.853 62.1911 27.8502C62.1428 27.8502 62.0902 27.8488 62.0334 27.8459V26.5888C62.076 26.5917 62.1143 26.5931 62.1484 26.5931C62.1825 26.5959 62.218 26.5973 62.255 26.5973C62.5504 26.5973 62.7621 26.5249 62.8899 26.38C63.0178 26.238 63.0817 26.0292 63.0817 25.7536V18.8544ZM63.8487 17.9255C63.6016 17.9255 63.3899 17.8445 63.2138 17.6826C63.0405 17.5178 62.9538 17.3204 62.9538 17.0902C62.9538 16.8573 63.0405 16.6598 63.2138 16.4979C63.3899 16.3331 63.6016 16.2508 63.8487 16.2508C64.093 16.2508 64.3018 16.3331 64.4751 16.4979C64.6513 16.6598 64.7393 16.8573 64.7393 17.0902C64.7393 17.3204 64.6513 17.5178 64.4751 17.6826C64.3018 17.8445 64.093 17.9255 63.8487 17.9255ZM69.1083 25.5277C68.4521 25.5277 67.8853 25.3914 67.408 25.1187C66.9336 24.8431 66.5685 24.4539 66.3129 23.951C66.0572 23.4454 65.9293 22.8502 65.9293 22.1655C65.9293 21.4922 66.0572 20.9013 66.3129 20.3928C66.5714 19.8814 66.9322 19.4837 67.3952 19.1996C67.8583 18.9127 68.4023 18.7692 69.0273 18.7692C69.4308 18.7692 69.8114 18.8346 70.1694 18.9652C70.5302 19.0931 70.8484 19.2919 71.1239 19.5618C71.4023 19.8317 71.6211 20.1755 71.7802 20.5931C71.9393 21.0079 72.0188 21.5022 72.0188 22.076V22.549H66.6538V21.5093H70.5401C70.5373 21.2138 70.4734 20.951 70.3484 20.7209C70.2234 20.488 70.0487 20.3047 69.8242 20.1712C69.6026 20.0377 69.3441 19.9709 69.0487 19.9709C68.7333 19.9709 68.4563 20.0476 68.2177 20.201C67.979 20.3516 67.793 20.5505 67.6594 20.7976C67.5288 21.0419 67.462 21.3104 67.4592 21.603V22.5107C67.4592 22.8914 67.5288 23.2181 67.668 23.4908C67.8072 23.7607 68.0018 23.9681 68.2518 24.113C68.5018 24.255 68.7944 24.326 69.1296 24.326C69.354 24.326 69.5572 24.2948 69.739 24.2323C69.9208 24.1669 70.0785 24.0718 70.212 23.9468C70.3455 23.8218 70.4464 23.6669 70.5146 23.4823L71.9549 23.6442C71.864 24.0249 71.6907 24.3573 71.435 24.6414C71.1822 24.9226 70.8583 25.1414 70.4634 25.2976C70.0685 25.451 69.6168 25.5277 69.1083 25.5277ZM76.179 25.5277C75.5256 25.5277 74.9645 25.3843 74.4957 25.0973C74.0298 24.8104 73.6705 24.4141 73.4176 23.9084C73.1676 23.3999 73.0426 22.8147 73.0426 22.1527C73.0426 21.488 73.1705 20.9013 73.4261 20.3928C73.6818 19.8814 74.0426 19.4837 74.5085 19.1996C74.9773 18.9127 75.5313 18.7692 76.1705 18.7692C76.7017 18.7692 77.1719 18.8672 77.581 19.0633C77.9929 19.2564 78.321 19.5306 78.5653 19.8857C78.8097 20.238 78.9489 20.6499 78.983 21.1215H77.5085C77.4489 20.8062 77.3068 20.5434 77.0824 20.3331C76.8608 20.1201 76.5639 20.0135 76.1918 20.0135C75.8764 20.0135 75.5994 20.0988 75.3608 20.2692C75.1222 20.4368 74.9361 20.6783 74.8026 20.9937C74.6719 21.309 74.6065 21.6868 74.6065 22.1272C74.6065 22.5732 74.6719 22.9567 74.8026 23.2777C74.9332 23.5959 75.1165 23.8417 75.3523 24.015C75.5909 24.1854 75.8707 24.2706 76.1918 24.2706C76.419 24.2706 76.6222 24.228 76.8011 24.1428C76.983 24.0547 77.1349 23.9283 77.2571 23.7635C77.3793 23.5988 77.4631 23.3985 77.5085 23.1627H78.983C78.946 23.6258 78.8097 24.0363 78.5739 24.3942C78.3381 24.7493 78.017 25.0277 77.6108 25.2294C77.2045 25.4283 76.7273 25.5277 76.179 25.5277ZM83.5181 18.8544V20.0476H79.7553V18.8544H83.5181ZM80.6843 17.2863H82.2269V23.4312C82.2269 23.6385 82.2582 23.7976 82.3207 23.9084C82.386 24.0164 82.4712 24.0902 82.5763 24.13C82.6815 24.1698 82.7979 24.1897 82.9258 24.1897C83.0224 24.1897 83.1104 24.1826 83.19 24.1684C83.2724 24.1542 83.3349 24.1414 83.3775 24.13L83.6374 25.336C83.555 25.3644 83.4371 25.3956 83.2837 25.4297C83.1332 25.4638 82.9485 25.4837 82.7298 25.4894C82.3434 25.5008 81.9954 25.4425 81.6857 25.3147C81.3761 25.184 81.1303 24.9823 80.9485 24.7096C80.7695 24.4368 80.6815 24.0959 80.6843 23.6868V17.2863Z" fill="#292D39"/>
<rect x="16" y="33" width="98" height="75" rx="4" fill="#70AF40"/>
<path d="M55.6513 49H54.245L56.8054 41.7273H58.4318L60.9957 49H59.5895L57.647 43.2188H57.5902L55.6513 49ZM55.6974 46.1484H59.5327V47.2067H55.6974V46.1484ZM61.8968 51.0455V43.5455H63.161V44.4474H63.2356C63.3019 44.3149 63.3954 44.174 63.5162 44.0249C63.6369 43.8733 63.8002 43.7443 64.0062 43.6378C64.2122 43.5289 64.475 43.4744 64.7946 43.4744C65.216 43.4744 65.5959 43.5821 65.9345 43.7976C66.2754 44.0107 66.5453 44.3267 66.7441 44.7457C66.9454 45.1624 67.046 45.6738 67.046 46.2798C67.046 46.8788 66.9477 47.3878 66.7512 47.8068C66.5547 48.2259 66.2872 48.5455 65.9487 48.7656C65.6101 48.9858 65.2266 49.0959 64.7981 49.0959C64.4856 49.0959 64.2264 49.0438 64.0204 48.9396C63.8145 48.8355 63.6487 48.71 63.5233 48.5632C63.4002 48.4141 63.3043 48.2732 63.2356 48.1406H63.1824V51.0455H61.8968ZM63.1575 46.2727C63.1575 46.6255 63.2072 46.9344 63.3066 47.1996C63.4084 47.4647 63.554 47.6719 63.7434 47.821C63.9352 47.9678 64.1672 48.0412 64.4395 48.0412C64.7235 48.0412 64.9615 47.9654 65.1532 47.8139C65.345 47.66 65.4894 47.4505 65.5865 47.1854C65.6859 46.9179 65.7356 46.6136 65.7356 46.2727C65.7356 45.9342 65.6871 45.6335 65.59 45.3707C65.493 45.108 65.3485 44.902 65.1568 44.7528C64.965 44.6037 64.7259 44.5291 64.4395 44.5291C64.1648 44.5291 63.9316 44.6013 63.7399 44.7457C63.5481 44.8902 63.4025 45.0926 63.3031 45.353C63.206 45.6134 63.1575 45.92 63.1575 46.2727ZM68.1468 51.0455V43.5455H69.411V44.4474H69.4856C69.5519 44.3149 69.6454 44.174 69.7662 44.0249C69.8869 43.8733 70.0502 43.7443 70.2562 43.6378C70.4622 43.5289 70.725 43.4744 71.0446 43.4744C71.466 43.4744 71.8459 43.5821 72.1845 43.7976C72.5254 44.0107 72.7953 44.3267 72.9941 44.7457C73.1954 45.1624 73.296 45.6738 73.296 46.2798C73.296 46.8788 73.1977 47.3878 73.0012 47.8068C72.8047 48.2259 72.5372 48.5455 72.1987 48.7656C71.8601 48.9858 71.4766 49.0959 71.0481 49.0959C70.7356 49.0959 70.4764 49.0438 70.2704 48.9396C70.0645 48.8355 69.8987 48.71 69.7733 48.5632C69.6502 48.4141 69.5543 48.2732 69.4856 48.1406H69.4324V51.0455H68.1468ZM69.4075 46.2727C69.4075 46.6255 69.4572 46.9344 69.5566 47.1996C69.6584 47.4647 69.804 47.6719 69.9934 47.821C70.1852 47.9678 70.4172 48.0412 70.6895 48.0412C70.9735 48.0412 71.2115 47.9654 71.4032 47.8139C71.595 47.66 71.7394 47.4505 71.8365 47.1854C71.9359 46.9179 71.9856 46.6136 71.9856 46.2727C71.9856 45.9342 71.9371 45.6335 71.84 45.3707C71.743 45.108 71.5985 44.902 71.4068 44.7528C71.215 44.6037 70.9759 44.5291 70.6895 44.5291C70.4148 44.5291 70.1816 44.6013 69.9899 44.7457C69.7981 44.8902 69.6525 45.0926 69.5531 45.353C69.456 45.6134 69.4075 45.92 69.4075 46.2727Z" fill="white"/>
<rect x="28" y="58" width="74" height="18" rx="2" fill="#FFC662"/>
<path d="M36.0398 71.1065C35.4953 71.1065 35.0277 70.987 34.6371 70.7479C34.2488 70.5088 33.9493 70.1785 33.7386 69.7571C33.5303 69.3333 33.4261 68.8456 33.4261 68.294C33.4261 67.7401 33.5327 67.2512 33.7457 66.8274C33.9588 66.4013 34.2595 66.0698 34.6477 65.8331C35.0384 65.594 35.5 65.4744 36.0327 65.4744C36.4754 65.4744 36.8672 65.5561 37.2081 65.7195C37.5514 65.8804 37.8248 66.1089 38.0284 66.4048C38.232 66.6984 38.348 67.0417 38.3764 67.4347H37.1477C37.098 67.1719 36.9796 66.9529 36.7926 66.7777C36.608 66.6001 36.3606 66.5114 36.0504 66.5114C35.7876 66.5114 35.5568 66.5824 35.358 66.7244C35.1591 66.8641 35.004 67.0653 34.8928 67.3281C34.7839 67.5909 34.7294 67.9058 34.7294 68.2727C34.7294 68.6444 34.7839 68.964 34.8928 69.2315C35.0017 69.4967 35.1544 69.7015 35.3509 69.8459C35.5497 69.9879 35.7829 70.0589 36.0504 70.0589C36.2398 70.0589 36.4091 70.0234 36.5582 69.9524C36.7098 69.879 36.8364 69.7737 36.9382 69.6364C37.04 69.4991 37.1098 69.3321 37.1477 69.1357H38.3764C38.3456 69.5215 38.232 69.8636 38.0355 70.1619C37.839 70.4579 37.5715 70.6899 37.233 70.858C36.8944 71.0237 36.4967 71.1065 36.0398 71.1065ZM41.8113 71.1065C41.2786 71.1065 40.8169 70.9893 40.4263 70.755C40.0357 70.5206 39.7327 70.1927 39.5172 69.7713C39.3042 69.3499 39.1976 68.8575 39.1976 68.294C39.1976 67.7306 39.3042 67.237 39.5172 66.8132C39.7327 66.3894 40.0357 66.0604 40.4263 65.826C40.8169 65.5916 41.2786 65.4744 41.8113 65.4744C42.3439 65.4744 42.8056 65.5916 43.1962 65.826C43.5868 66.0604 43.8887 66.3894 44.1017 66.8132C44.3172 67.237 44.4249 67.7306 44.4249 68.294C44.4249 68.8575 44.3172 69.3499 44.1017 69.7713C43.8887 70.1927 43.5868 70.5206 43.1962 70.755C42.8056 70.9893 42.3439 71.1065 41.8113 71.1065ZM41.8184 70.0767C42.1072 70.0767 42.3487 69.9974 42.5428 69.8388C42.7369 69.6778 42.8813 69.4624 42.976 69.1925C43.0731 68.9226 43.1216 68.6219 43.1216 68.2905C43.1216 67.9567 43.0731 67.6548 42.976 67.3849C42.8813 67.1127 42.7369 66.8961 42.5428 66.7351C42.3487 66.5741 42.1072 66.4936 41.8184 66.4936C41.5224 66.4936 41.2762 66.5741 41.0797 66.7351C40.8856 66.8961 40.74 67.1127 40.6429 67.3849C40.5482 67.6548 40.5009 67.9567 40.5009 68.2905C40.5009 68.6219 40.5482 68.9226 40.6429 69.1925C40.74 69.4624 40.8856 69.6778 41.0797 69.8388C41.2762 69.9974 41.5224 70.0767 41.8184 70.0767ZM45.516 71V65.5455H46.7447V66.4723H46.8086C46.9222 66.1598 47.1104 65.916 47.3732 65.7408C47.636 65.5632 47.9497 65.4744 48.3143 65.4744C48.6836 65.4744 48.9949 65.5644 49.2482 65.7443C49.5039 65.9219 49.6838 66.1645 49.788 66.4723H49.8448C49.9656 66.1693 50.1692 65.9278 50.4556 65.7479C50.7444 65.5656 51.0865 65.4744 51.4819 65.4744C51.9838 65.4744 52.3933 65.633 52.7106 65.9503C53.0278 66.2675 53.1864 66.7304 53.1864 67.3388V71H51.8974V67.5376C51.8974 67.1991 51.8074 66.9517 51.6275 66.7955C51.4476 66.6368 51.2274 66.5575 50.967 66.5575C50.6568 66.5575 50.4142 66.6546 50.239 66.8487C50.0662 67.0405 49.9798 67.2902 49.9798 67.598V71H48.7191V67.4844C48.7191 67.2027 48.6339 66.9777 48.4634 66.8097C48.2953 66.6416 48.0752 66.5575 47.8029 66.5575C47.6183 66.5575 47.4502 66.6049 47.2987 66.6996C47.1471 66.7919 47.0264 66.9233 46.9364 67.0938C46.8465 67.2618 46.8015 67.4583 46.8015 67.6832V71H45.516ZM54.4906 73.0455V65.5455H55.7548V66.4474H55.8294C55.8957 66.3149 55.9892 66.174 56.1099 66.0249C56.2306 65.8733 56.394 65.7443 56.6 65.6378C56.8059 65.5289 57.0687 65.4744 57.3883 65.4744C57.8097 65.4744 58.1897 65.5821 58.5282 65.7976C58.8691 66.0107 59.139 66.3267 59.3379 66.7457C59.5391 67.1624 59.6397 67.6738 59.6397 68.2798C59.6397 68.8788 59.5415 69.3878 59.345 69.8068C59.1485 70.2259 58.881 70.5455 58.5424 70.7656C58.2039 70.9858 57.8204 71.0959 57.3919 71.0959C57.0794 71.0959 56.8201 71.0438 56.6142 70.9396C56.4082 70.8355 56.2425 70.71 56.117 70.5632C55.9939 70.4141 55.898 70.2732 55.8294 70.1406H55.7761V73.0455H54.4906ZM55.7512 68.2727C55.7512 68.6255 55.801 68.9344 55.9004 69.1996C56.0022 69.4647 56.1478 69.6719 56.3372 69.821C56.5289 69.9678 56.7609 70.0412 57.0332 70.0412C57.3173 70.0412 57.5552 69.9654 57.747 69.8139C57.9387 69.66 58.0832 69.4505 58.1802 69.1854C58.2797 68.9179 58.3294 68.6136 58.3294 68.2727C58.3294 67.9342 58.2808 67.6335 58.1838 67.3707C58.0867 67.108 57.9423 66.902 57.7505 66.7528C57.5588 66.6037 57.3197 66.5291 57.0332 66.5291C56.7586 66.5291 56.5254 66.6013 56.3336 66.7457C56.1419 66.8902 55.9963 67.0926 55.8968 67.353C55.7998 67.6134 55.7512 67.92 55.7512 68.2727ZM63.1199 71.1065C62.5872 71.1065 62.1255 70.9893 61.7349 70.755C61.3443 70.5206 61.0413 70.1927 60.8258 69.7713C60.6127 69.3499 60.5062 68.8575 60.5062 68.294C60.5062 67.7306 60.6127 67.237 60.8258 66.8132C61.0413 66.3894 61.3443 66.0604 61.7349 65.826C62.1255 65.5916 62.5872 65.4744 63.1199 65.4744C63.6525 65.4744 64.1142 65.5916 64.5048 65.826C64.8954 66.0604 65.1973 66.3894 65.4103 66.8132C65.6258 67.237 65.7335 67.7306 65.7335 68.294C65.7335 68.8575 65.6258 69.3499 65.4103 69.7713C65.1973 70.1927 64.8954 70.5206 64.5048 70.755C64.1142 70.9893 63.6525 71.1065 63.1199 71.1065ZM63.127 70.0767C63.4158 70.0767 63.6573 69.9974 63.8514 69.8388C64.0455 69.6778 64.1899 69.4624 64.2846 69.1925C64.3817 68.9226 64.4302 68.6219 64.4302 68.2905C64.4302 67.9567 64.3817 67.6548 64.2846 67.3849C64.1899 67.1127 64.0455 66.8961 63.8514 66.7351C63.6573 66.5741 63.4158 66.4936 63.127 66.4936C62.831 66.4936 62.5848 66.5741 62.3883 66.7351C62.1942 66.8961 62.0486 67.1127 61.9515 67.3849C61.8568 67.6548 61.8095 67.9567 61.8095 68.2905C61.8095 68.6219 61.8568 68.9226 61.9515 69.1925C62.0486 69.4624 62.1942 69.6778 62.3883 69.8388C62.5848 69.9974 62.831 70.0767 63.127 70.0767ZM68.1101 67.804V71H66.8246V65.5455H68.0533V66.4723H68.1172C68.2427 66.1669 68.4427 65.9242 68.7173 65.7443C68.9943 65.5644 69.3364 65.4744 69.7436 65.4744C70.12 65.4744 70.4479 65.5549 70.7273 65.7159C71.009 65.8769 71.2268 66.1101 71.3807 66.4155C71.5369 66.7209 71.6139 67.0914 71.6115 67.527V71H70.326V67.7259C70.326 67.3613 70.2313 67.076 70.0419 66.87C69.8549 66.6641 69.5956 66.5611 69.2642 66.5611C69.0393 66.5611 68.8393 66.6108 68.6641 66.7102C68.4912 66.8073 68.3551 66.9482 68.2557 67.1328C68.1586 67.3175 68.1101 67.5412 68.1101 67.804ZM75.3331 71.1065C74.7862 71.1065 74.3139 70.9929 73.9162 70.7656C73.5208 70.536 73.2166 70.2116 73.0036 69.7926C72.7905 69.3712 72.6839 68.8752 72.6839 68.3047C72.6839 67.7436 72.7905 67.2512 73.0036 66.8274C73.219 66.4013 73.5196 66.0698 73.9055 65.8331C74.2914 65.594 74.7448 65.4744 75.2656 65.4744C75.6018 65.4744 75.919 65.5289 76.2173 65.6378C76.518 65.7443 76.7831 65.91 77.0128 66.1349C77.2448 66.3598 77.4271 66.6463 77.5597 66.9943C77.6922 67.34 77.7585 67.7519 77.7585 68.2301V68.6243H73.2876V67.7578H76.5263C76.5239 67.5116 76.4706 67.2926 76.3665 67.1009C76.2623 66.9067 76.1167 66.754 75.9297 66.6428C75.745 66.5315 75.5296 66.4759 75.2834 66.4759C75.0206 66.4759 74.7898 66.5398 74.5909 66.6676C74.392 66.7931 74.237 66.9588 74.1257 67.1648C74.0168 67.3684 73.9612 67.5921 73.9588 67.8359V68.5923C73.9588 68.9096 74.0168 69.1818 74.1328 69.4091C74.2488 69.634 74.411 69.8068 74.6193 69.9276C74.8277 70.0459 75.0715 70.1051 75.3509 70.1051C75.5379 70.1051 75.7071 70.0791 75.8587 70.027C76.0102 69.9725 76.1416 69.8932 76.2528 69.7891C76.3641 69.6849 76.4482 69.5559 76.505 69.402L77.7053 69.5369C77.6295 69.8542 77.4851 70.1312 77.272 70.3679C77.0613 70.6023 76.7914 70.7846 76.4624 70.9148C76.1333 71.0426 75.7569 71.1065 75.3331 71.1065ZM80.1316 67.804V71H78.8461V65.5455H80.0748V66.4723H80.1387C80.2641 66.1669 80.4642 65.9242 80.7388 65.7443C81.0158 65.5644 81.3579 65.4744 81.7651 65.4744C82.1415 65.4744 82.4694 65.5549 82.7488 65.7159C83.0305 65.8769 83.2483 66.1101 83.4022 66.4155C83.5584 66.7209 83.6354 67.0914 83.633 67.527V71H82.3475V67.7259C82.3475 67.3613 82.2528 67.076 82.0634 66.87C81.8764 66.6641 81.6171 66.5611 81.2857 66.5611C81.0608 66.5611 80.8607 66.6108 80.6855 66.7102C80.5127 66.8073 80.3766 66.9482 80.2772 67.1328C80.1801 67.3175 80.1316 67.5412 80.1316 67.804ZM87.6635 65.5455V66.5398H84.5279V65.5455H87.6635ZM85.302 64.2386H86.5875V69.3594C86.5875 69.5322 86.6136 69.6648 86.6657 69.7571C86.7201 69.8471 86.7911 69.9086 86.8787 69.9418C86.9663 69.9749 87.0634 69.9915 87.1699 69.9915C87.2504 69.9915 87.3238 69.9856 87.3901 69.9737C87.4587 69.9619 87.5108 69.9512 87.5463 69.9418L87.763 70.9467C87.6943 70.9704 87.5961 70.9964 87.4682 71.0249C87.3427 71.0533 87.1889 71.0698 87.0066 71.0746C86.6846 71.084 86.3946 71.0355 86.1365 70.929C85.8785 70.8201 85.6737 70.652 85.5222 70.4247C85.373 70.1974 85.2997 69.9134 85.302 69.5724V64.2386ZM92.9716 66.9872L91.7997 67.1151C91.7666 66.9967 91.7086 66.8854 91.6257 66.7812C91.5452 66.6771 91.4363 66.593 91.299 66.5291C91.1617 66.4652 90.9936 66.4332 90.7947 66.4332C90.5272 66.4332 90.3023 66.4912 90.12 66.6072C89.9401 66.7232 89.8513 66.8736 89.8537 67.0582C89.8513 67.2169 89.9093 67.3459 90.0277 67.4453C90.1484 67.5447 90.3473 67.6264 90.6243 67.6903L91.5547 67.8892C92.0708 68.0005 92.4543 68.1768 92.7053 68.4183C92.9586 68.6598 93.0864 68.9759 93.0888 69.3665C93.0864 69.7098 92.9858 70.0128 92.7869 70.2756C92.5904 70.536 92.317 70.7396 91.9666 70.8864C91.6162 71.0331 91.2138 71.1065 90.7592 71.1065C90.0916 71.1065 89.5542 70.9669 89.147 70.6875C88.7398 70.4058 88.4972 70.014 88.419 69.5121L89.6726 69.3913C89.7294 69.6375 89.8501 69.8234 90.0348 69.9489C90.2195 70.0743 90.4598 70.1371 90.7557 70.1371C91.0611 70.1371 91.3061 70.0743 91.4908 69.9489C91.6778 69.8234 91.7713 69.6683 91.7713 69.4837C91.7713 69.3274 91.7109 69.1984 91.5902 69.0966C91.4718 68.9948 91.2872 68.9167 91.0362 68.8622L90.1058 68.6669C89.5826 68.558 89.1955 68.3745 88.9446 68.1165C88.6937 67.8561 88.5694 67.527 88.5717 67.1293C88.5694 66.7931 88.6605 66.5019 88.8452 66.2557C89.0322 66.0071 89.2914 65.8153 89.6229 65.6804C89.9567 65.5431 90.3414 65.4744 90.777 65.4744C91.4162 65.4744 91.9193 65.6106 92.2862 65.8828C92.6555 66.1551 92.884 66.5232 92.9716 66.9872Z" fill="white"/>
<rect x="28" y="81" width="30" height="18" rx="2" fill="#61A8E8"/>
<path d="M37.1371 91.706V88.5455H38.4226V94H37.1761V93.0305H37.1193C36.9962 93.3359 36.7938 93.5857 36.5121 93.7798C36.2327 93.974 35.8883 94.071 35.4787 94.071C35.1212 94.071 34.8052 93.9917 34.5305 93.8331C34.2583 93.6721 34.0452 93.4389 33.8913 93.1335C33.7375 92.8258 33.6605 92.4541 33.6605 92.0185V88.5455H34.946V91.8196C34.946 92.1652 35.0407 92.4399 35.2301 92.6435C35.4195 92.8471 35.6681 92.9489 35.9759 92.9489C36.1652 92.9489 36.3487 92.9027 36.5263 92.8104C36.7038 92.718 36.8494 92.5807 36.9631 92.3984C37.0791 92.2138 37.1371 91.983 37.1371 91.706ZM42.4682 88.5455V89.5398H39.3326V88.5455H42.4682ZM40.1067 87.2386H41.3922V92.3594C41.3922 92.5322 41.4183 92.6648 41.4703 92.7571C41.5248 92.8471 41.5958 92.9086 41.6834 92.9418C41.771 92.9749 41.8681 92.9915 41.9746 92.9915C42.0551 92.9915 42.1285 92.9856 42.1948 92.9737C42.2634 92.9619 42.3155 92.9512 42.351 92.9418L42.5676 93.9467C42.499 93.9704 42.4007 93.9964 42.2729 94.0249C42.1474 94.0533 41.9935 94.0698 41.8113 94.0746C41.4893 94.084 41.1993 94.0355 40.9412 93.929C40.6832 93.8201 40.4784 93.652 40.3269 93.4247C40.1777 93.1974 40.1043 92.9134 40.1067 92.5724V87.2386ZM43.5433 94V88.5455H44.8288V94H43.5433ZM44.1896 87.7713C43.986 87.7713 43.8108 87.7038 43.6641 87.5689C43.5173 87.4316 43.4439 87.267 43.4439 87.0753C43.4439 86.8812 43.5173 86.7166 43.6641 86.5817C43.8108 86.4444 43.986 86.3757 44.1896 86.3757C44.3956 86.3757 44.5708 86.4444 44.7152 86.5817C44.862 86.7166 44.9354 86.8812 44.9354 87.0753C44.9354 87.267 44.862 87.4316 44.7152 87.5689C44.5708 87.7038 44.3956 87.7713 44.1896 87.7713ZM47.4363 86.7273V94H46.1507V86.7273H47.4363ZM53.0692 89.9872L51.8974 90.1151C51.8642 89.9967 51.8062 89.8854 51.7234 89.7812C51.6429 89.6771 51.534 89.593 51.3967 89.5291C51.2594 89.4652 51.0913 89.4332 50.8924 89.4332C50.6249 89.4332 50.4 89.4912 50.2177 89.6072C50.0378 89.7232 49.949 89.8736 49.9513 90.0582C49.949 90.2169 50.007 90.3459 50.1254 90.4453C50.2461 90.5447 50.445 90.6264 50.7219 90.6903L51.6523 90.8892C52.1684 91.0005 52.552 91.1768 52.8029 91.4183C53.0562 91.6598 53.1841 91.9759 53.1864 92.3665C53.1841 92.7098 53.0835 93.0128 52.8846 93.2756C52.6881 93.536 52.4147 93.7396 52.0643 93.8864C51.7139 94.0331 51.3114 94.1065 50.8569 94.1065C50.1893 94.1065 49.6519 93.9669 49.2447 93.6875C48.8375 93.4058 48.5948 93.014 48.5167 92.5121L49.7702 92.3913C49.8271 92.6375 49.9478 92.8234 50.1325 92.9489C50.3171 93.0743 50.5574 93.1371 50.8533 93.1371C51.1587 93.1371 51.4038 93.0743 51.5884 92.9489C51.7754 92.8234 51.869 92.6683 51.869 92.4837C51.869 92.3274 51.8086 92.1984 51.6879 92.0966C51.5695 91.9948 51.3848 91.9167 51.1339 91.8622L50.2035 91.6669C49.6803 91.558 49.2932 91.3745 49.0423 91.1165C48.7913 90.8561 48.667 90.527 48.6694 90.1293C48.667 89.7931 48.7582 89.5019 48.9428 89.2557C49.1299 89.0071 49.3891 88.8153 49.7205 88.6804C50.0543 88.5431 50.439 88.4744 50.8746 88.4744C51.5138 88.4744 52.0169 88.6106 52.3839 88.8828C52.7532 89.1551 52.9817 89.5232 53.0692 89.9872Z" fill="white"/>
<rect x="63" y="81" width="20" height="18" rx="2" fill="#8C61E8"/>
<path d="M69.946 86.7273V94H68.6605V86.7273H69.946ZM71.2679 94V88.5455H72.5534V94H71.2679ZM71.9142 87.7713C71.7106 87.7713 71.5355 87.7038 71.3887 87.5689C71.2419 87.4316 71.1685 87.267 71.1685 87.0753C71.1685 86.8812 71.2419 86.7166 71.3887 86.5817C71.5355 86.4444 71.7106 86.3757 71.9142 86.3757C72.1202 86.3757 72.2954 86.4444 72.4398 86.5817C72.5866 86.7166 72.66 86.8812 72.66 87.0753C72.66 87.267 72.5866 87.4316 72.4398 87.5689C72.2954 87.7038 72.1202 87.7713 71.9142 87.7713ZM73.9322 94V86.7273H75.2177V89.4474H75.271C75.3372 89.3149 75.4308 89.174 75.5515 89.0249C75.6722 88.8733 75.8356 88.7443 76.0415 88.6378C76.2475 88.5289 76.5103 88.4744 76.8299 88.4744C77.2513 88.4744 77.6313 88.5821 77.9698 88.7976C78.3107 89.0107 78.5806 89.3267 78.7795 89.7457C78.9807 90.1624 79.0813 90.6738 79.0813 91.2798C79.0813 91.8788 78.9831 92.3878 78.7866 92.8068C78.5901 93.2259 78.3226 93.5455 77.984 93.7656C77.6455 93.9858 77.262 94.0959 76.8335 94.0959C76.521 94.0959 76.2617 94.0438 76.0558 93.9396C75.8498 93.8355 75.6841 93.71 75.5586 93.5632C75.4355 93.4141 75.3396 93.2732 75.271 93.1406H75.1964V94H73.9322ZM75.1928 91.2727C75.1928 91.6255 75.2425 91.9344 75.342 92.1996C75.4438 92.4647 75.5894 92.6719 75.7788 92.821C75.9705 92.9678 76.2025 93.0412 76.4748 93.0412C76.7589 93.0412 76.9968 92.9654 77.1886 92.8139C77.3803 92.66 77.5247 92.4505 77.6218 92.1854C77.7212 91.9179 77.771 91.6136 77.771 91.2727C77.771 90.9342 77.7224 90.6335 77.6254 90.3707C77.5283 90.108 77.3839 89.902 77.1921 89.7528C77.0004 89.6037 76.7612 89.5291 76.4748 89.5291C76.2002 89.5291 75.967 89.6013 75.7752 89.7457C75.5835 89.8902 75.4379 90.0926 75.3384 90.353C75.2414 90.6134 75.1928 90.92 75.1928 91.2727Z" fill="white"/>
<rect x="140" y="9" width="111" height="110" rx="4" fill="#D3D4D7"/>
<path d="M174.793 27.8544V18.8544H176.31V19.9368H176.399C176.479 19.7777 176.591 19.6087 176.736 19.4297C176.881 19.2479 177.077 19.0931 177.324 18.9652C177.571 18.8346 177.886 18.7692 178.27 18.7692C178.776 18.7692 179.232 18.8985 179.638 19.157C180.047 19.4127 180.371 19.7919 180.609 20.2948C180.851 20.7948 180.972 21.4084 180.972 22.1357C180.972 22.8544 180.854 23.4652 180.618 23.9681C180.382 24.4709 180.061 24.8544 179.655 25.1187C179.249 25.3829 178.788 25.515 178.274 25.515C177.899 25.515 177.588 25.4525 177.341 25.3275C177.094 25.2025 176.895 25.0519 176.744 24.8758C176.597 24.6968 176.482 24.5277 176.399 24.3687H176.335V27.8544H174.793ZM176.305 22.1272C176.305 22.5505 176.365 22.9212 176.484 23.2394C176.607 23.5576 176.781 23.8062 177.009 23.9851C177.239 24.1613 177.517 24.2493 177.844 24.2493C178.185 24.2493 178.47 24.1584 178.7 23.9766C178.93 23.7919 179.104 23.5405 179.22 23.2223C179.339 22.9013 179.399 22.5363 179.399 22.1272C179.399 21.7209 179.341 21.3601 179.224 21.0448C179.108 20.7294 178.935 20.4823 178.705 20.3033C178.474 20.1243 178.188 20.0348 177.844 20.0348C177.514 20.0348 177.234 20.1215 177.004 20.2948C176.774 20.4681 176.599 20.711 176.48 21.0235C176.364 21.336 176.305 21.7039 176.305 22.1272ZM182.293 25.3999V18.8544H183.788V19.9454H183.857C183.976 19.5675 184.18 19.2763 184.47 19.0718C184.763 18.8644 185.097 18.7607 185.472 18.7607C185.557 18.7607 185.652 18.765 185.757 18.7735C185.865 18.7792 185.955 18.7891 186.026 18.8033V20.2223C185.96 20.1996 185.857 20.1797 185.714 20.1627C185.575 20.1428 185.44 20.1329 185.31 20.1329C185.028 20.1329 184.776 20.1939 184.551 20.3161C184.33 20.4354 184.155 20.6016 184.027 20.8147C183.899 21.0277 183.835 21.2735 183.835 21.5519V25.3999H182.293ZM189.636 25.5277C188.997 25.5277 188.443 25.3871 187.974 25.1059C187.505 24.8246 187.142 24.4312 186.883 23.9255C186.627 23.4198 186.5 22.8289 186.5 22.1527C186.5 21.4766 186.627 20.8843 186.883 20.3758C187.142 19.8672 187.505 19.4723 187.974 19.1911C188.443 18.9098 188.997 18.7692 189.636 18.7692C190.275 18.7692 190.829 18.9098 191.298 19.1911C191.767 19.4723 192.129 19.8672 192.385 20.3758C192.643 20.8843 192.772 21.4766 192.772 22.1527C192.772 22.8289 192.643 23.4198 192.385 23.9255C192.129 24.4312 191.767 24.8246 191.298 25.1059C190.829 25.3871 190.275 25.5277 189.636 25.5277ZM189.645 24.2919C189.991 24.2919 190.281 24.1968 190.514 24.0064C190.747 23.8133 190.92 23.5547 191.034 23.2309C191.15 22.907 191.208 22.5462 191.208 22.1485C191.208 21.7479 191.15 21.3857 191.034 21.0618C190.92 20.7351 190.747 20.4752 190.514 20.282C190.281 20.0888 189.991 19.9922 189.645 19.9922C189.289 19.9922 188.994 20.0888 188.758 20.282C188.525 20.4752 188.35 20.7351 188.234 21.0618C188.12 21.3857 188.064 21.7479 188.064 22.1485C188.064 22.5462 188.12 22.907 188.234 23.2309C188.35 23.5547 188.525 23.8133 188.758 24.0064C188.994 24.1968 189.289 24.2919 189.645 24.2919ZM194.082 18.8544H195.624V25.7749C195.624 26.2465 195.535 26.6357 195.356 26.9425C195.177 27.2493 194.918 27.478 194.58 27.6286C194.242 27.7792 193.832 27.8544 193.349 27.8544C193.292 27.8544 193.239 27.853 193.191 27.8502C193.143 27.8502 193.09 27.8488 193.033 27.8459V26.5888C193.076 26.5917 193.114 26.5931 193.148 26.5931C193.183 26.5959 193.218 26.5973 193.255 26.5973C193.55 26.5973 193.762 26.5249 193.89 26.38C194.018 26.238 194.082 26.0292 194.082 25.7536V18.8544ZM194.849 17.9255C194.602 17.9255 194.39 17.8445 194.214 17.6826C194.04 17.5178 193.954 17.3204 193.954 17.0902C193.954 16.8573 194.04 16.6598 194.214 16.4979C194.39 16.3331 194.602 16.2508 194.849 16.2508C195.093 16.2508 195.302 16.3331 195.475 16.4979C195.651 16.6598 195.739 16.8573 195.739 17.0902C195.739 17.3204 195.651 17.5178 195.475 17.6826C195.302 17.8445 195.093 17.9255 194.849 17.9255ZM200.108 25.5277C199.452 25.5277 198.885 25.3914 198.408 25.1187C197.934 24.8431 197.569 24.4539 197.313 23.951C197.057 23.4454 196.929 22.8502 196.929 22.1655C196.929 21.4922 197.057 20.9013 197.313 20.3928C197.571 19.8814 197.932 19.4837 198.395 19.1996C198.858 18.9127 199.402 18.7692 200.027 18.7692C200.431 18.7692 200.811 18.8346 201.169 18.9652C201.53 19.0931 201.848 19.2919 202.124 19.5618C202.402 19.8317 202.621 20.1755 202.78 20.5931C202.939 21.0079 203.019 21.5022 203.019 22.076V22.549H197.654V21.5093H201.54C201.537 21.2138 201.473 20.951 201.348 20.7209C201.223 20.488 201.049 20.3047 200.824 20.1712C200.603 20.0377 200.344 19.9709 200.049 19.9709C199.733 19.9709 199.456 20.0476 199.218 20.201C198.979 20.3516 198.793 20.5505 198.659 20.7976C198.529 21.0419 198.462 21.3104 198.459 21.603V22.5107C198.459 22.8914 198.529 23.2181 198.668 23.4908C198.807 23.7607 199.002 23.9681 199.252 24.113C199.502 24.255 199.794 24.326 200.13 24.326C200.354 24.326 200.557 24.2948 200.739 24.2323C200.921 24.1669 201.078 24.0718 201.212 23.9468C201.346 23.8218 201.446 23.6669 201.515 23.4823L202.955 23.6442C202.864 24.0249 202.691 24.3573 202.435 24.6414C202.182 24.9226 201.858 25.1414 201.463 25.2976C201.069 25.451 200.617 25.5277 200.108 25.5277ZM207.179 25.5277C206.526 25.5277 205.964 25.3843 205.496 25.0973C205.03 24.8104 204.67 24.4141 204.418 23.9084C204.168 23.3999 204.043 22.8147 204.043 22.1527C204.043 21.488 204.17 20.9013 204.426 20.3928C204.682 19.8814 205.043 19.4837 205.509 19.1996C205.977 18.9127 206.531 18.7692 207.17 18.7692C207.702 18.7692 208.172 18.8672 208.581 19.0633C208.993 19.2564 209.321 19.5306 209.565 19.8857C209.81 20.238 209.949 20.6499 209.983 21.1215H208.509C208.449 20.8062 208.307 20.5434 208.082 20.3331C207.861 20.1201 207.564 20.0135 207.192 20.0135C206.876 20.0135 206.599 20.0988 206.361 20.2692C206.122 20.4368 205.936 20.6783 205.803 20.9937C205.672 21.309 205.607 21.6868 205.607 22.1272C205.607 22.5732 205.672 22.9567 205.803 23.2777C205.933 23.5959 206.116 23.8417 206.352 24.015C206.591 24.1854 206.871 24.2706 207.192 24.2706C207.419 24.2706 207.622 24.228 207.801 24.1428C207.983 24.0547 208.135 23.9283 208.257 23.7635C208.379 23.5988 208.463 23.3985 208.509 23.1627H209.983C209.946 23.6258 209.81 24.0363 209.574 24.3942C209.338 24.7493 209.017 25.0277 208.611 25.2294C208.205 25.4283 207.727 25.5277 207.179 25.5277ZM214.518 18.8544V20.0476H210.755V18.8544H214.518ZM211.684 17.2863H213.227V23.4312C213.227 23.6385 213.258 23.7976 213.321 23.9084C213.386 24.0164 213.471 24.0902 213.576 24.13C213.681 24.1698 213.798 24.1897 213.926 24.1897C214.022 24.1897 214.11 24.1826 214.19 24.1684C214.272 24.1542 214.335 24.1414 214.377 24.13L214.637 25.336C214.555 25.3644 214.437 25.3956 214.284 25.4297C214.133 25.4638 213.949 25.4837 213.73 25.4894C213.343 25.5008 212.995 25.4425 212.686 25.3147C212.376 25.184 212.13 24.9823 211.949 24.7096C211.77 24.4368 211.681 24.0959 211.684 23.6868V17.2863Z" fill="#292D39"/>
<rect x="147" y="33" width="98" height="75" rx="4" fill="#70AF40"/>
<path d="M186.651 49H185.245L187.805 41.7273H189.432L191.996 49H190.589L188.647 43.2188H188.59L186.651 49ZM186.697 46.1484H190.533V47.2067H186.697V46.1484ZM192.897 51.0455V43.5455H194.161V44.4474H194.236C194.302 44.3149 194.395 44.174 194.516 44.0249C194.637 43.8733 194.8 43.7443 195.006 43.6378C195.212 43.5289 195.475 43.4744 195.795 43.4744C196.216 43.4744 196.596 43.5821 196.934 43.7976C197.275 44.0107 197.545 44.3267 197.744 44.7457C197.945 45.1624 198.046 45.6738 198.046 46.2798C198.046 46.8788 197.948 47.3878 197.751 47.8068C197.555 48.2259 197.287 48.5455 196.949 48.7656C196.61 48.9858 196.227 49.0959 195.798 49.0959C195.486 49.0959 195.226 49.0438 195.02 48.9396C194.814 48.8355 194.649 48.71 194.523 48.5632C194.4 48.4141 194.304 48.2732 194.236 48.1406H194.182V51.0455H192.897ZM194.157 46.2727C194.157 46.6255 194.207 46.9344 194.307 47.1996C194.408 47.4647 194.554 47.6719 194.743 47.821C194.935 47.9678 195.167 48.0412 195.439 48.0412C195.724 48.0412 195.961 47.9654 196.153 47.8139C196.345 47.66 196.489 47.4505 196.586 47.1854C196.686 46.9179 196.736 46.6136 196.736 46.2727C196.736 45.9342 196.687 45.6335 196.59 45.3707C196.493 45.108 196.349 44.902 196.157 44.7528C195.965 44.6037 195.726 44.5291 195.439 44.5291C195.165 44.5291 194.932 44.6013 194.74 44.7457C194.548 44.8902 194.403 45.0926 194.303 45.353C194.206 45.6134 194.157 45.92 194.157 46.2727ZM199.147 51.0455V43.5455H200.411V44.4474H200.486C200.552 44.3149 200.645 44.174 200.766 44.0249C200.887 43.8733 201.05 43.7443 201.256 43.6378C201.462 43.5289 201.725 43.4744 202.045 43.4744C202.466 43.4744 202.846 43.5821 203.184 43.7976C203.525 44.0107 203.795 44.3267 203.994 44.7457C204.195 45.1624 204.296 45.6738 204.296 46.2798C204.296 46.8788 204.198 47.3878 204.001 47.8068C203.805 48.2259 203.537 48.5455 203.199 48.7656C202.86 48.9858 202.477 49.0959 202.048 49.0959C201.736 49.0959 201.476 49.0438 201.27 48.9396C201.064 48.8355 200.899 48.71 200.773 48.5632C200.65 48.4141 200.554 48.2732 200.486 48.1406H200.432V51.0455H199.147ZM200.407 46.2727C200.407 46.6255 200.457 46.9344 200.557 47.1996C200.658 47.4647 200.804 47.6719 200.993 47.821C201.185 47.9678 201.417 48.0412 201.689 48.0412C201.974 48.0412 202.211 47.9654 202.403 47.8139C202.595 47.66 202.739 47.4505 202.836 47.1854C202.936 46.9179 202.986 46.6136 202.986 46.2727C202.986 45.9342 202.937 45.6335 202.84 45.3707C202.743 45.108 202.599 44.902 202.407 44.7528C202.215 44.6037 201.976 44.5291 201.689 44.5291C201.415 44.5291 201.182 44.6013 200.99 44.7457C200.798 44.8902 200.653 45.0926 200.553 45.353C200.456 45.6134 200.407 45.92 200.407 46.2727Z" fill="white"/>
<rect x="159" y="58" width="74" height="18" rx="2" fill="#FFC662"/>
<path d="M167.04 71.1065C166.495 71.1065 166.028 70.987 165.637 70.7479C165.249 70.5088 164.949 70.1785 164.739 69.7571C164.53 69.3333 164.426 68.8456 164.426 68.294C164.426 67.7401 164.533 67.2512 164.746 66.8274C164.959 66.4013 165.259 66.0698 165.648 65.8331C166.038 65.594 166.5 65.4744 167.033 65.4744C167.475 65.4744 167.867 65.5561 168.208 65.7195C168.551 65.8804 168.825 66.1089 169.028 66.4048C169.232 66.6984 169.348 67.0417 169.376 67.4347H168.148C168.098 67.1719 167.98 66.9529 167.793 66.7777C167.608 66.6001 167.361 66.5114 167.05 66.5114C166.788 66.5114 166.557 66.5824 166.358 66.7244C166.159 66.8641 166.004 67.0653 165.893 67.3281C165.784 67.5909 165.729 67.9058 165.729 68.2727C165.729 68.6444 165.784 68.964 165.893 69.2315C166.002 69.4967 166.154 69.7015 166.351 69.8459C166.55 69.9879 166.783 70.0589 167.05 70.0589C167.24 70.0589 167.409 70.0234 167.558 69.9524C167.71 69.879 167.836 69.7737 167.938 69.6364C168.04 69.4991 168.11 69.3321 168.148 69.1357H169.376C169.346 69.5215 169.232 69.8636 169.036 70.1619C168.839 70.4579 168.571 70.6899 168.233 70.858C167.894 71.0237 167.497 71.1065 167.04 71.1065ZM172.811 71.1065C172.279 71.1065 171.817 70.9893 171.426 70.755C171.036 70.5206 170.733 70.1927 170.517 69.7713C170.304 69.3499 170.198 68.8575 170.198 68.294C170.198 67.7306 170.304 67.237 170.517 66.8132C170.733 66.3894 171.036 66.0604 171.426 65.826C171.817 65.5916 172.279 65.4744 172.811 65.4744C173.344 65.4744 173.806 65.5916 174.196 65.826C174.587 66.0604 174.889 66.3894 175.102 66.8132C175.317 67.237 175.425 67.7306 175.425 68.294C175.425 68.8575 175.317 69.3499 175.102 69.7713C174.889 70.1927 174.587 70.5206 174.196 70.755C173.806 70.9893 173.344 71.1065 172.811 71.1065ZM172.818 70.0767C173.107 70.0767 173.349 69.9974 173.543 69.8388C173.737 69.6778 173.881 69.4624 173.976 69.1925C174.073 68.9226 174.122 68.6219 174.122 68.2905C174.122 67.9567 174.073 67.6548 173.976 67.3849C173.881 67.1127 173.737 66.8961 173.543 66.7351C173.349 66.5741 173.107 66.4936 172.818 66.4936C172.522 66.4936 172.276 66.5741 172.08 66.7351C171.886 66.8961 171.74 67.1127 171.643 67.3849C171.548 67.6548 171.501 67.9567 171.501 68.2905C171.501 68.6219 171.548 68.9226 171.643 69.1925C171.74 69.4624 171.886 69.6778 172.08 69.8388C172.276 69.9974 172.522 70.0767 172.818 70.0767ZM176.516 71V65.5455H177.745V66.4723H177.809C177.922 66.1598 178.11 65.916 178.373 65.7408C178.636 65.5632 178.95 65.4744 179.314 65.4744C179.684 65.4744 179.995 65.5644 180.248 65.7443C180.504 65.9219 180.684 66.1645 180.788 66.4723H180.845C180.966 66.1693 181.169 65.9278 181.456 65.7479C181.744 65.5656 182.087 65.4744 182.482 65.4744C182.984 65.4744 183.393 65.633 183.711 65.9503C184.028 66.2675 184.186 66.7304 184.186 67.3388V71H182.897V67.5376C182.897 67.1991 182.807 66.9517 182.627 66.7955C182.448 66.6368 182.227 66.5575 181.967 66.5575C181.657 66.5575 181.414 66.6546 181.239 66.8487C181.066 67.0405 180.98 67.2902 180.98 67.598V71H179.719V67.4844C179.719 67.2027 179.634 66.9777 179.463 66.8097C179.295 66.6416 179.075 66.5575 178.803 66.5575C178.618 66.5575 178.45 66.6049 178.299 66.6996C178.147 66.7919 178.026 66.9233 177.936 67.0938C177.846 67.2618 177.801 67.4583 177.801 67.6832V71H176.516ZM185.491 73.0455V65.5455H186.755V66.4474H186.829C186.896 66.3149 186.989 66.174 187.11 66.0249C187.231 65.8733 187.394 65.7443 187.6 65.6378C187.806 65.5289 188.069 65.4744 188.388 65.4744C188.81 65.4744 189.19 65.5821 189.528 65.7976C189.869 66.0107 190.139 66.3267 190.338 66.7457C190.539 67.1624 190.64 67.6738 190.64 68.2798C190.64 68.8788 190.541 69.3878 190.345 69.8068C190.148 70.2259 189.881 70.5455 189.542 70.7656C189.204 70.9858 188.82 71.0959 188.392 71.0959C188.079 71.0959 187.82 71.0438 187.614 70.9396C187.408 70.8355 187.242 70.71 187.117 70.5632C186.994 70.4141 186.898 70.2732 186.829 70.1406H186.776V73.0455H185.491ZM186.751 68.2727C186.751 68.6255 186.801 68.9344 186.9 69.1996C187.002 69.4647 187.148 69.6719 187.337 69.821C187.529 69.9678 187.761 70.0412 188.033 70.0412C188.317 70.0412 188.555 69.9654 188.747 69.8139C188.939 69.66 189.083 69.4505 189.18 69.1854C189.28 68.9179 189.329 68.6136 189.329 68.2727C189.329 67.9342 189.281 67.6335 189.184 67.3707C189.087 67.108 188.942 66.902 188.751 66.7528C188.559 66.6037 188.32 66.5291 188.033 66.5291C187.759 66.5291 187.525 66.6013 187.334 66.7457C187.142 66.8902 186.996 67.0926 186.897 67.353C186.8 67.6134 186.751 67.92 186.751 68.2727ZM194.12 71.1065C193.587 71.1065 193.126 70.9893 192.735 70.755C192.344 70.5206 192.041 70.1927 191.826 69.7713C191.613 69.3499 191.506 68.8575 191.506 68.294C191.506 67.7306 191.613 67.237 191.826 66.8132C192.041 66.3894 192.344 66.0604 192.735 65.826C193.126 65.5916 193.587 65.4744 194.12 65.4744C194.653 65.4744 195.114 65.5916 195.505 65.826C195.895 66.0604 196.197 66.3894 196.41 66.8132C196.626 67.237 196.733 67.7306 196.733 68.294C196.733 68.8575 196.626 69.3499 196.41 69.7713C196.197 70.1927 195.895 70.5206 195.505 70.755C195.114 70.9893 194.653 71.1065 194.12 71.1065ZM194.127 70.0767C194.416 70.0767 194.657 69.9974 194.851 69.8388C195.046 69.6778 195.19 69.4624 195.285 69.1925C195.382 68.9226 195.43 68.6219 195.43 68.2905C195.43 67.9567 195.382 67.6548 195.285 67.3849C195.19 67.1127 195.046 66.8961 194.851 66.7351C194.657 66.5741 194.416 66.4936 194.127 66.4936C193.831 66.4936 193.585 66.5741 193.388 66.7351C193.194 66.8961 193.049 67.1127 192.952 67.3849C192.857 67.6548 192.809 67.9567 192.809 68.2905C192.809 68.6219 192.857 68.9226 192.952 69.1925C193.049 69.4624 193.194 69.6778 193.388 69.8388C193.585 69.9974 193.831 70.0767 194.127 70.0767ZM199.11 67.804V71H197.825V65.5455H199.053V66.4723H199.117C199.243 66.1669 199.443 65.9242 199.717 65.7443C199.994 65.5644 200.336 65.4744 200.744 65.4744C201.12 65.4744 201.448 65.5549 201.727 65.7159C202.009 65.8769 202.227 66.1101 202.381 66.4155C202.537 66.7209 202.614 67.0914 202.612 67.527V71H201.326V67.7259C201.326 67.3613 201.231 67.076 201.042 66.87C200.855 66.6641 200.596 66.5611 200.264 66.5611C200.039 66.5611 199.839 66.6108 199.664 66.7102C199.491 66.8073 199.355 66.9482 199.256 67.1328C199.159 67.3175 199.11 67.5412 199.11 67.804ZM206.333 71.1065C205.786 71.1065 205.314 70.9929 204.916 70.7656C204.521 70.536 204.217 70.2116 204.004 69.7926C203.79 69.3712 203.684 68.8752 203.684 68.3047C203.684 67.7436 203.79 67.2512 204.004 66.8274C204.219 66.4013 204.52 66.0698 204.906 65.8331C205.291 65.594 205.745 65.4744 206.266 65.4744C206.602 65.4744 206.919 65.5289 207.217 65.6378C207.518 65.7443 207.783 65.91 208.013 66.1349C208.245 66.3598 208.427 66.6463 208.56 66.9943C208.692 67.34 208.759 67.7519 208.759 68.2301V68.6243H204.288V67.7578H207.526C207.524 67.5116 207.471 67.2926 207.366 67.1009C207.262 66.9067 207.117 66.754 206.93 66.6428C206.745 66.5315 206.53 66.4759 206.283 66.4759C206.021 66.4759 205.79 66.5398 205.591 66.6676C205.392 66.7931 205.237 66.9588 205.126 67.1648C205.017 67.3684 204.961 67.5921 204.959 67.8359V68.5923C204.959 68.9096 205.017 69.1818 205.133 69.4091C205.249 69.634 205.411 69.8068 205.619 69.9276C205.828 70.0459 206.071 70.1051 206.351 70.1051C206.538 70.1051 206.707 70.0791 206.859 70.027C207.01 69.9725 207.142 69.8932 207.253 69.7891C207.364 69.6849 207.448 69.5559 207.505 69.402L208.705 69.5369C208.629 69.8542 208.485 70.1312 208.272 70.3679C208.061 70.6023 207.791 70.7846 207.462 70.9148C207.133 71.0426 206.757 71.1065 206.333 71.1065ZM211.132 67.804V71H209.846V65.5455H211.075V66.4723H211.139C211.264 66.1669 211.464 65.9242 211.739 65.7443C212.016 65.5644 212.358 65.4744 212.765 65.4744C213.142 65.4744 213.469 65.5549 213.749 65.7159C214.03 65.8769 214.248 66.1101 214.402 66.4155C214.558 66.7209 214.635 67.0914 214.633 67.527V71H213.347V67.7259C213.347 67.3613 213.253 67.076 213.063 66.87C212.876 66.6641 212.617 66.5611 212.286 66.5611C212.061 66.5611 211.861 66.6108 211.686 66.7102C211.513 66.8073 211.377 66.9482 211.277 67.1328C211.18 67.3175 211.132 67.5412 211.132 67.804ZM218.664 65.5455V66.5398H215.528V65.5455H218.664ZM216.302 64.2386H217.588V69.3594C217.588 69.5322 217.614 69.6648 217.666 69.7571C217.72 69.8471 217.791 69.9086 217.879 69.9418C217.966 69.9749 218.063 69.9915 218.17 69.9915C218.25 69.9915 218.324 69.9856 218.39 69.9737C218.459 69.9619 218.511 69.9512 218.546 69.9418L218.763 70.9467C218.694 70.9704 218.596 70.9964 218.468 71.0249C218.343 71.0533 218.189 71.0698 218.007 71.0746C217.685 71.084 217.395 71.0355 217.137 70.929C216.878 70.8201 216.674 70.652 216.522 70.4247C216.373 70.1974 216.3 69.9134 216.302 69.5724V64.2386ZM223.972 66.9872L222.8 67.1151C222.767 66.9967 222.709 66.8854 222.626 66.7812C222.545 66.6771 222.436 66.593 222.299 66.5291C222.162 66.4652 221.994 66.4332 221.795 66.4332C221.527 66.4332 221.302 66.4912 221.12 66.6072C220.94 66.7232 220.851 66.8736 220.854 67.0582C220.851 67.2169 220.909 67.3459 221.028 67.4453C221.148 67.5447 221.347 67.6264 221.624 67.6903L222.555 67.8892C223.071 68.0005 223.454 68.1768 223.705 68.4183C223.959 68.6598 224.086 68.9759 224.089 69.3665C224.086 69.7098 223.986 70.0128 223.787 70.2756C223.59 70.536 223.317 70.7396 222.967 70.8864C222.616 71.0331 222.214 71.1065 221.759 71.1065C221.092 71.1065 220.554 70.9669 220.147 70.6875C219.74 70.4058 219.497 70.014 219.419 69.5121L220.673 69.3913C220.729 69.6375 220.85 69.8234 221.035 69.9489C221.219 70.0743 221.46 70.1371 221.756 70.1371C222.061 70.1371 222.306 70.0743 222.491 69.9489C222.678 69.8234 222.771 69.6683 222.771 69.4837C222.771 69.3274 222.711 69.1984 222.59 69.0966C222.472 68.9948 222.287 68.9167 222.036 68.8622L221.106 68.6669C220.583 68.558 220.196 68.3745 219.945 68.1165C219.694 67.8561 219.569 67.527 219.572 67.1293C219.569 66.7931 219.661 66.5019 219.845 66.2557C220.032 66.0071 220.291 65.8153 220.623 65.6804C220.957 65.5431 221.341 65.4744 221.777 65.4744C222.416 65.4744 222.919 65.6106 223.286 65.8828C223.656 66.1551 223.884 66.5232 223.972 66.9872Z" fill="white"/>
<rect x="159" y="81" width="30" height="18" rx="2" fill="#61A8E8"/>
<path d="M168.137 91.706V88.5455H169.423V94H168.176V93.0305H168.119C167.996 93.3359 167.794 93.5857 167.512 93.7798C167.233 93.974 166.888 94.071 166.479 94.071C166.121 94.071 165.805 93.9917 165.531 93.8331C165.258 93.6721 165.045 93.4389 164.891 93.1335C164.737 92.8258 164.661 92.4541 164.661 92.0185V88.5455H165.946V91.8196C165.946 92.1652 166.041 92.4399 166.23 92.6435C166.42 92.8471 166.668 92.9489 166.976 92.9489C167.165 92.9489 167.349 92.9027 167.526 92.8104C167.704 92.718 167.849 92.5807 167.963 92.3984C168.079 92.2138 168.137 91.983 168.137 91.706ZM173.468 88.5455V89.5398H170.333V88.5455H173.468ZM171.107 87.2386H172.392V92.3594C172.392 92.5322 172.418 92.6648 172.47 92.7571C172.525 92.8471 172.596 92.9086 172.683 92.9418C172.771 92.9749 172.868 92.9915 172.975 92.9915C173.055 92.9915 173.128 92.9856 173.195 92.9737C173.263 92.9619 173.316 92.9512 173.351 92.9418L173.568 93.9467C173.499 93.9704 173.401 93.9964 173.273 94.0249C173.147 94.0533 172.994 94.0698 172.811 94.0746C172.489 94.084 172.199 94.0355 171.941 93.929C171.683 93.8201 171.478 93.652 171.327 93.4247C171.178 93.1974 171.104 92.9134 171.107 92.5724V87.2386ZM174.543 94V88.5455H175.829V94H174.543ZM175.19 87.7713C174.986 87.7713 174.811 87.7038 174.664 87.5689C174.517 87.4316 174.444 87.267 174.444 87.0753C174.444 86.8812 174.517 86.7166 174.664 86.5817C174.811 86.4444 174.986 86.3757 175.19 86.3757C175.396 86.3757 175.571 86.4444 175.715 86.5817C175.862 86.7166 175.935 86.8812 175.935 87.0753C175.935 87.267 175.862 87.4316 175.715 87.5689C175.571 87.7038 175.396 87.7713 175.19 87.7713ZM178.436 86.7273V94H177.151V86.7273H178.436ZM184.069 89.9872L182.897 90.1151C182.864 89.9967 182.806 89.8854 182.723 89.7812C182.643 89.6771 182.534 89.593 182.397 89.5291C182.259 89.4652 182.091 89.4332 181.892 89.4332C181.625 89.4332 181.4 89.4912 181.218 89.6072C181.038 89.7232 180.949 89.8736 180.951 90.0582C180.949 90.2169 181.007 90.3459 181.125 90.4453C181.246 90.5447 181.445 90.6264 181.722 90.6903L182.652 90.8892C183.168 91.0005 183.552 91.1768 183.803 91.4183C184.056 91.6598 184.184 91.9759 184.186 92.3665C184.184 92.7098 184.083 93.0128 183.885 93.2756C183.688 93.536 183.415 93.7396 183.064 93.8864C182.714 94.0331 182.311 94.1065 181.857 94.1065C181.189 94.1065 180.652 93.9669 180.245 93.6875C179.837 93.4058 179.595 93.014 179.517 92.5121L180.77 92.3913C180.827 92.6375 180.948 92.8234 181.132 92.9489C181.317 93.0743 181.557 93.1371 181.853 93.1371C182.159 93.1371 182.404 93.0743 182.588 92.9489C182.775 92.8234 182.869 92.6683 182.869 92.4837C182.869 92.3274 182.809 92.1984 182.688 92.0966C182.569 91.9948 182.385 91.9167 182.134 91.8622L181.203 91.6669C180.68 91.558 180.293 91.3745 180.042 91.1165C179.791 90.8561 179.667 90.527 179.669 90.1293C179.667 89.7931 179.758 89.5019 179.943 89.2557C180.13 89.0071 180.389 88.8153 180.721 88.6804C181.054 88.5431 181.439 88.4744 181.875 88.4744C182.514 88.4744 183.017 88.6106 183.384 88.8828C183.753 89.1551 183.982 89.5232 184.069 89.9872Z" fill="white"/>
<rect x="194" y="81" width="20" height="18" rx="2" fill="#8C61E8"/>
<path d="M200.946 86.7273V94H199.661V86.7273H200.946ZM202.268 94V88.5455H203.553V94H202.268ZM202.914 87.7713C202.711 87.7713 202.535 87.7038 202.389 87.5689C202.242 87.4316 202.169 87.267 202.169 87.0753C202.169 86.8812 202.242 86.7166 202.389 86.5817C202.535 86.4444 202.711 86.3757 202.914 86.3757C203.12 86.3757 203.295 86.4444 203.44 86.5817C203.587 86.7166 203.66 86.8812 203.66 87.0753C203.66 87.267 203.587 87.4316 203.44 87.5689C203.295 87.7038 203.12 87.7713 202.914 87.7713ZM204.932 94V86.7273H206.218V89.4474H206.271C206.337 89.3149 206.431 89.174 206.551 89.0249C206.672 88.8733 206.836 88.7443 207.042 88.6378C207.248 88.5289 207.51 88.4744 207.83 88.4744C208.251 88.4744 208.631 88.5821 208.97 88.7976C209.311 89.0107 209.581 89.3267 209.779 89.7457C209.981 90.1624 210.081 90.6738 210.081 91.2798C210.081 91.8788 209.983 92.3878 209.787 92.8068C209.59 93.2259 209.323 93.5455 208.984 93.7656C208.645 93.9858 208.262 94.0959 207.833 94.0959C207.521 94.0959 207.262 94.0438 207.056 93.9396C206.85 93.8355 206.684 93.71 206.559 93.5632C206.435 93.4141 206.34 93.2732 206.271 93.1406H206.196V94H204.932ZM206.193 91.2727C206.193 91.6255 206.243 91.9344 206.342 92.1996C206.444 92.4647 206.589 92.6719 206.779 92.821C206.971 92.9678 207.203 93.0412 207.475 93.0412C207.759 93.0412 207.997 92.9654 208.189 92.8139C208.38 92.66 208.525 92.4505 208.622 92.1854C208.721 91.9179 208.771 91.6136 208.771 91.2727C208.771 90.9342 208.722 90.6335 208.625 90.3707C208.528 90.108 208.384 89.902 208.192 89.7528C208 89.6037 207.761 89.5291 207.475 89.5291C207.2 89.5291 206.967 89.6013 206.775 89.7457C206.583 89.8902 206.438 90.0926 206.338 90.353C206.241 90.6134 206.193 90.92 206.193 91.2727Z" fill="white"/>
<rect x="76" y="134" width="111" height="110" rx="4" fill="#D3D4D7"/>
<path d="M110.793 152.854V143.854H112.31V144.937H112.399C112.479 144.778 112.591 144.609 112.736 144.43C112.881 144.248 113.077 144.093 113.324 143.965C113.571 143.835 113.886 143.769 114.27 143.769C114.776 143.769 115.232 143.898 115.638 144.157C116.047 144.413 116.371 144.792 116.609 145.295C116.851 145.795 116.972 146.408 116.972 147.136C116.972 147.854 116.854 148.465 116.618 148.968C116.382 149.471 116.061 149.854 115.655 150.119C115.249 150.383 114.788 150.515 114.274 150.515C113.899 150.515 113.588 150.452 113.341 150.327C113.094 150.202 112.895 150.052 112.744 149.876C112.597 149.697 112.482 149.528 112.399 149.369H112.335V152.854H110.793ZM112.305 147.127C112.305 147.55 112.365 147.921 112.484 148.239C112.607 148.558 112.781 148.806 113.009 148.985C113.239 149.161 113.517 149.249 113.844 149.249C114.185 149.249 114.47 149.158 114.7 148.977C114.93 148.792 115.104 148.541 115.22 148.222C115.339 147.901 115.399 147.536 115.399 147.127C115.399 146.721 115.341 146.36 115.224 146.045C115.108 145.729 114.935 145.482 114.705 145.303C114.474 145.124 114.188 145.035 113.844 145.035C113.514 145.035 113.234 145.121 113.004 145.295C112.774 145.468 112.599 145.711 112.48 146.023C112.364 146.336 112.305 146.704 112.305 147.127ZM118.293 150.4V143.854H119.788V144.945H119.857C119.976 144.568 120.18 144.276 120.47 144.072C120.763 143.864 121.097 143.761 121.472 143.761C121.557 143.761 121.652 143.765 121.757 143.773C121.865 143.779 121.955 143.789 122.026 143.803V145.222C121.96 145.2 121.857 145.18 121.714 145.163C121.575 145.143 121.44 145.133 121.31 145.133C121.028 145.133 120.776 145.194 120.551 145.316C120.33 145.435 120.155 145.602 120.027 145.815C119.899 146.028 119.835 146.273 119.835 146.552V150.4H118.293ZM125.636 150.528C124.997 150.528 124.443 150.387 123.974 150.106C123.505 149.825 123.142 149.431 122.883 148.925C122.627 148.42 122.5 147.829 122.5 147.153C122.5 146.477 122.627 145.884 122.883 145.376C123.142 144.867 123.505 144.472 123.974 144.191C124.443 143.91 124.997 143.769 125.636 143.769C126.275 143.769 126.829 143.91 127.298 144.191C127.767 144.472 128.129 144.867 128.385 145.376C128.643 145.884 128.772 146.477 128.772 147.153C128.772 147.829 128.643 148.42 128.385 148.925C128.129 149.431 127.767 149.825 127.298 150.106C126.829 150.387 126.275 150.528 125.636 150.528ZM125.645 149.292C125.991 149.292 126.281 149.197 126.514 149.006C126.747 148.813 126.92 148.555 127.034 148.231C127.15 147.907 127.208 147.546 127.208 147.148C127.208 146.748 127.15 146.386 127.034 146.062C126.92 145.735 126.747 145.475 126.514 145.282C126.281 145.089 125.991 144.992 125.645 144.992C125.289 144.992 124.994 145.089 124.758 145.282C124.525 145.475 124.35 145.735 124.234 146.062C124.12 146.386 124.064 146.748 124.064 147.148C124.064 147.546 124.12 147.907 124.234 148.231C124.35 148.555 124.525 148.813 124.758 149.006C124.994 149.197 125.289 149.292 125.645 149.292ZM130.082 143.854H131.624V150.775C131.624 151.246 131.535 151.636 131.356 151.943C131.177 152.249 130.918 152.478 130.58 152.629C130.242 152.779 129.832 152.854 129.349 152.854C129.292 152.854 129.239 152.853 129.191 152.85C129.143 152.85 129.09 152.849 129.033 152.846V151.589C129.076 151.592 129.114 151.593 129.148 151.593C129.183 151.596 129.218 151.597 129.255 151.597C129.55 151.597 129.762 151.525 129.89 151.38C130.018 151.238 130.082 151.029 130.082 150.754V143.854ZM130.849 142.925C130.602 142.925 130.39 142.845 130.214 142.683C130.04 142.518 129.954 142.32 129.954 142.09C129.954 141.857 130.04 141.66 130.214 141.498C130.39 141.333 130.602 141.251 130.849 141.251C131.093 141.251 131.302 141.333 131.475 141.498C131.651 141.66 131.739 141.857 131.739 142.09C131.739 142.32 131.651 142.518 131.475 142.683C131.302 142.845 131.093 142.925 130.849 142.925ZM136.108 150.528C135.452 150.528 134.885 150.391 134.408 150.119C133.934 149.843 133.569 149.454 133.313 148.951C133.057 148.445 132.929 147.85 132.929 147.166C132.929 146.492 133.057 145.901 133.313 145.393C133.571 144.881 133.932 144.484 134.395 144.2C134.858 143.913 135.402 143.769 136.027 143.769C136.431 143.769 136.811 143.835 137.169 143.965C137.53 144.093 137.848 144.292 138.124 144.562C138.402 144.832 138.621 145.175 138.78 145.593C138.939 146.008 139.019 146.502 139.019 147.076V147.549H133.654V146.509H137.54C137.537 146.214 137.473 145.951 137.348 145.721C137.223 145.488 137.049 145.305 136.824 145.171C136.603 145.038 136.344 144.971 136.049 144.971C135.733 144.971 135.456 145.048 135.218 145.201C134.979 145.352 134.793 145.55 134.659 145.798C134.529 146.042 134.462 146.31 134.459 146.603V147.511C134.459 147.891 134.529 148.218 134.668 148.491C134.807 148.761 135.002 148.968 135.252 149.113C135.502 149.255 135.794 149.326 136.13 149.326C136.354 149.326 136.557 149.295 136.739 149.232C136.921 149.167 137.078 149.072 137.212 148.947C137.346 148.822 137.446 148.667 137.515 148.482L138.955 148.644C138.864 149.025 138.691 149.357 138.435 149.641C138.182 149.923 137.858 150.141 137.463 150.298C137.069 150.451 136.617 150.528 136.108 150.528ZM143.179 150.528C142.526 150.528 141.964 150.384 141.496 150.097C141.03 149.81 140.67 149.414 140.418 148.908C140.168 148.4 140.043 147.815 140.043 147.153C140.043 146.488 140.17 145.901 140.426 145.393C140.682 144.881 141.043 144.484 141.509 144.2C141.977 143.913 142.531 143.769 143.17 143.769C143.702 143.769 144.172 143.867 144.581 144.063C144.993 144.256 145.321 144.531 145.565 144.886C145.81 145.238 145.949 145.65 145.983 146.121H144.509C144.449 145.806 144.307 145.543 144.082 145.333C143.861 145.12 143.564 145.014 143.192 145.014C142.876 145.014 142.599 145.099 142.361 145.269C142.122 145.437 141.936 145.678 141.803 145.994C141.672 146.309 141.607 146.687 141.607 147.127C141.607 147.573 141.672 147.957 141.803 148.278C141.933 148.596 142.116 148.842 142.352 149.015C142.591 149.185 142.871 149.271 143.192 149.271C143.419 149.271 143.622 149.228 143.801 149.143C143.983 149.055 144.135 148.928 144.257 148.764C144.379 148.599 144.463 148.398 144.509 148.163H145.983C145.946 148.626 145.81 149.036 145.574 149.394C145.338 149.749 145.017 150.028 144.611 150.229C144.205 150.428 143.727 150.528 143.179 150.528ZM150.518 143.854V145.048H146.755V143.854H150.518ZM147.684 142.286H149.227V148.431C149.227 148.639 149.258 148.798 149.321 148.908C149.386 149.016 149.471 149.09 149.576 149.13C149.681 149.17 149.798 149.19 149.926 149.19C150.022 149.19 150.11 149.183 150.19 149.168C150.272 149.154 150.335 149.141 150.377 149.13L150.637 150.336C150.555 150.364 150.437 150.396 150.284 150.43C150.133 150.464 149.949 150.484 149.73 150.489C149.343 150.501 148.995 150.443 148.686 150.315C148.376 150.184 148.13 149.982 147.949 149.71C147.77 149.437 147.681 149.096 147.684 148.687V142.286Z" fill="#292D39"/>
<rect x="83" y="158" width="98" height="75" rx="4" fill="#70AF40"/>
<path d="M122.651 174H121.245L123.805 166.727H125.432L127.996 174H126.589L124.647 168.219H124.59L122.651 174ZM122.697 171.148H126.533V172.207H122.697V171.148ZM128.897 176.045V168.545H130.161V169.447H130.236C130.302 169.315 130.395 169.174 130.516 169.025C130.637 168.873 130.8 168.744 131.006 168.638C131.212 168.529 131.475 168.474 131.795 168.474C132.216 168.474 132.596 168.582 132.934 168.798C133.275 169.011 133.545 169.327 133.744 169.746C133.945 170.162 134.046 170.674 134.046 171.28C134.046 171.879 133.948 172.388 133.751 172.807C133.555 173.226 133.287 173.545 132.949 173.766C132.61 173.986 132.227 174.096 131.798 174.096C131.486 174.096 131.226 174.044 131.02 173.94C130.814 173.835 130.649 173.71 130.523 173.563C130.4 173.414 130.304 173.273 130.236 173.141H130.182V176.045H128.897ZM130.157 171.273C130.157 171.625 130.207 171.934 130.307 172.2C130.408 172.465 130.554 172.672 130.743 172.821C130.935 172.968 131.167 173.041 131.439 173.041C131.724 173.041 131.961 172.965 132.153 172.814C132.345 172.66 132.489 172.451 132.586 172.185C132.686 171.918 132.736 171.614 132.736 171.273C132.736 170.934 132.687 170.634 132.59 170.371C132.493 170.108 132.349 169.902 132.157 169.753C131.965 169.604 131.726 169.529 131.439 169.529C131.165 169.529 130.932 169.601 130.74 169.746C130.548 169.89 130.403 170.093 130.303 170.353C130.206 170.613 130.157 170.92 130.157 171.273ZM135.147 176.045V168.545H136.411V169.447H136.486C136.552 169.315 136.645 169.174 136.766 169.025C136.887 168.873 137.05 168.744 137.256 168.638C137.462 168.529 137.725 168.474 138.045 168.474C138.466 168.474 138.846 168.582 139.184 168.798C139.525 169.011 139.795 169.327 139.994 169.746C140.195 170.162 140.296 170.674 140.296 171.28C140.296 171.879 140.198 172.388 140.001 172.807C139.805 173.226 139.537 173.545 139.199 173.766C138.86 173.986 138.477 174.096 138.048 174.096C137.736 174.096 137.476 174.044 137.27 173.94C137.064 173.835 136.899 173.71 136.773 173.563C136.65 173.414 136.554 173.273 136.486 173.141H136.432V176.045H135.147ZM136.407 171.273C136.407 171.625 136.457 171.934 136.557 172.2C136.658 172.465 136.804 172.672 136.993 172.821C137.185 172.968 137.417 173.041 137.689 173.041C137.974 173.041 138.211 172.965 138.403 172.814C138.595 172.66 138.739 172.451 138.836 172.185C138.936 171.918 138.986 171.614 138.986 171.273C138.986 170.934 138.937 170.634 138.84 170.371C138.743 170.108 138.599 169.902 138.407 169.753C138.215 169.604 137.976 169.529 137.689 169.529C137.415 169.529 137.182 169.601 136.99 169.746C136.798 169.89 136.653 170.093 136.553 170.353C136.456 170.613 136.407 170.92 136.407 171.273Z" fill="white"/>
<rect x="95" y="183" width="74" height="18" rx="2" fill="#FFC662"/>
<path d="M103.04 196.107C102.495 196.107 102.028 195.987 101.637 195.748C101.249 195.509 100.949 195.179 100.739 194.757C100.53 194.333 100.426 193.846 100.426 193.294C100.426 192.74 100.533 192.251 100.746 191.827C100.959 191.401 101.259 191.07 101.648 190.833C102.038 190.594 102.5 190.474 103.033 190.474C103.475 190.474 103.867 190.556 104.208 190.719C104.551 190.88 104.825 191.109 105.028 191.405C105.232 191.698 105.348 192.042 105.376 192.435H104.148C104.098 192.172 103.98 191.953 103.793 191.778C103.608 191.6 103.361 191.511 103.05 191.511C102.788 191.511 102.557 191.582 102.358 191.724C102.159 191.864 102.004 192.065 101.893 192.328C101.784 192.591 101.729 192.906 101.729 193.273C101.729 193.644 101.784 193.964 101.893 194.232C102.002 194.497 102.154 194.701 102.351 194.846C102.55 194.988 102.783 195.059 103.05 195.059C103.24 195.059 103.409 195.023 103.558 194.952C103.71 194.879 103.836 194.774 103.938 194.636C104.04 194.499 104.11 194.332 104.148 194.136H105.376C105.346 194.522 105.232 194.864 105.036 195.162C104.839 195.458 104.571 195.69 104.233 195.858C103.894 196.024 103.497 196.107 103.04 196.107ZM108.811 196.107C108.279 196.107 107.817 195.989 107.426 195.755C107.036 195.521 106.733 195.193 106.517 194.771C106.304 194.35 106.198 193.857 106.198 193.294C106.198 192.731 106.304 192.237 106.517 191.813C106.733 191.389 107.036 191.06 107.426 190.826C107.817 190.592 108.279 190.474 108.811 190.474C109.344 190.474 109.806 190.592 110.196 190.826C110.587 191.06 110.889 191.389 111.102 191.813C111.317 192.237 111.425 192.731 111.425 193.294C111.425 193.857 111.317 194.35 111.102 194.771C110.889 195.193 110.587 195.521 110.196 195.755C109.806 195.989 109.344 196.107 108.811 196.107ZM108.818 195.077C109.107 195.077 109.349 194.997 109.543 194.839C109.737 194.678 109.881 194.462 109.976 194.192C110.073 193.923 110.122 193.622 110.122 193.29C110.122 192.957 110.073 192.655 109.976 192.385C109.881 192.113 109.737 191.896 109.543 191.735C109.349 191.574 109.107 191.494 108.818 191.494C108.522 191.494 108.276 191.574 108.08 191.735C107.886 191.896 107.74 192.113 107.643 192.385C107.548 192.655 107.501 192.957 107.501 193.29C107.501 193.622 107.548 193.923 107.643 194.192C107.74 194.462 107.886 194.678 108.08 194.839C108.276 194.997 108.522 195.077 108.818 195.077ZM112.516 196V190.545H113.745V191.472H113.809C113.922 191.16 114.11 190.916 114.373 190.741C114.636 190.563 114.95 190.474 115.314 190.474C115.684 190.474 115.995 190.564 116.248 190.744C116.504 190.922 116.684 191.165 116.788 191.472H116.845C116.966 191.169 117.169 190.928 117.456 190.748C117.744 190.566 118.087 190.474 118.482 190.474C118.984 190.474 119.393 190.633 119.711 190.95C120.028 191.268 120.186 191.73 120.186 192.339V196H118.897V192.538C118.897 192.199 118.807 191.952 118.627 191.795C118.448 191.637 118.227 191.558 117.967 191.558C117.657 191.558 117.414 191.655 117.239 191.849C117.066 192.04 116.98 192.29 116.98 192.598V196H115.719V192.484C115.719 192.203 115.634 191.978 115.463 191.81C115.295 191.642 115.075 191.558 114.803 191.558C114.618 191.558 114.45 191.605 114.299 191.7C114.147 191.792 114.026 191.923 113.936 192.094C113.846 192.262 113.801 192.458 113.801 192.683V196H112.516ZM121.491 198.045V190.545H122.755V191.447H122.829C122.896 191.315 122.989 191.174 123.11 191.025C123.231 190.873 123.394 190.744 123.6 190.638C123.806 190.529 124.069 190.474 124.388 190.474C124.81 190.474 125.19 190.582 125.528 190.798C125.869 191.011 126.139 191.327 126.338 191.746C126.539 192.162 126.64 192.674 126.64 193.28C126.64 193.879 126.541 194.388 126.345 194.807C126.148 195.226 125.881 195.545 125.542 195.766C125.204 195.986 124.82 196.096 124.392 196.096C124.079 196.096 123.82 196.044 123.614 195.94C123.408 195.835 123.242 195.71 123.117 195.563C122.994 195.414 122.898 195.273 122.829 195.141H122.776V198.045H121.491ZM122.751 193.273C122.751 193.625 122.801 193.934 122.9 194.2C123.002 194.465 123.148 194.672 123.337 194.821C123.529 194.968 123.761 195.041 124.033 195.041C124.317 195.041 124.555 194.965 124.747 194.814C124.939 194.66 125.083 194.451 125.18 194.185C125.28 193.918 125.329 193.614 125.329 193.273C125.329 192.934 125.281 192.634 125.184 192.371C125.087 192.108 124.942 191.902 124.751 191.753C124.559 191.604 124.32 191.529 124.033 191.529C123.759 191.529 123.525 191.601 123.334 191.746C123.142 191.89 122.996 192.093 122.897 192.353C122.8 192.613 122.751 192.92 122.751 193.273ZM130.12 196.107C129.587 196.107 129.126 195.989 128.735 195.755C128.344 195.521 128.041 195.193 127.826 194.771C127.613 194.35 127.506 193.857 127.506 193.294C127.506 192.731 127.613 192.237 127.826 191.813C128.041 191.389 128.344 191.06 128.735 190.826C129.126 190.592 129.587 190.474 130.12 190.474C130.653 190.474 131.114 190.592 131.505 190.826C131.895 191.06 132.197 191.389 132.41 191.813C132.626 192.237 132.733 192.731 132.733 193.294C132.733 193.857 132.626 194.35 132.41 194.771C132.197 195.193 131.895 195.521 131.505 195.755C131.114 195.989 130.653 196.107 130.12 196.107ZM130.127 195.077C130.416 195.077 130.657 194.997 130.851 194.839C131.046 194.678 131.19 194.462 131.285 194.192C131.382 193.923 131.43 193.622 131.43 193.29C131.43 192.957 131.382 192.655 131.285 192.385C131.19 192.113 131.046 191.896 130.851 191.735C130.657 191.574 130.416 191.494 130.127 191.494C129.831 191.494 129.585 191.574 129.388 191.735C129.194 191.896 129.049 192.113 128.952 192.385C128.857 192.655 128.809 192.957 128.809 193.29C128.809 193.622 128.857 193.923 128.952 194.192C129.049 194.462 129.194 194.678 129.388 194.839C129.585 194.997 129.831 195.077 130.127 195.077ZM135.11 192.804V196H133.825V190.545H135.053V191.472H135.117C135.243 191.167 135.443 190.924 135.717 190.744C135.994 190.564 136.336 190.474 136.744 190.474C137.12 190.474 137.448 190.555 137.727 190.716C138.009 190.877 138.227 191.11 138.381 191.415C138.537 191.721 138.614 192.091 138.612 192.527V196H137.326V192.726C137.326 192.361 137.231 192.076 137.042 191.87C136.855 191.664 136.596 191.561 136.264 191.561C136.039 191.561 135.839 191.611 135.664 191.71C135.491 191.807 135.355 191.948 135.256 192.133C135.159 192.317 135.11 192.541 135.11 192.804ZM142.333 196.107C141.786 196.107 141.314 195.993 140.916 195.766C140.521 195.536 140.217 195.212 140.004 194.793C139.79 194.371 139.684 193.875 139.684 193.305C139.684 192.744 139.79 192.251 140.004 191.827C140.219 191.401 140.52 191.07 140.906 190.833C141.291 190.594 141.745 190.474 142.266 190.474C142.602 190.474 142.919 190.529 143.217 190.638C143.518 190.744 143.783 190.91 144.013 191.135C144.245 191.36 144.427 191.646 144.56 191.994C144.692 192.34 144.759 192.752 144.759 193.23V193.624H140.288V192.758H143.526C143.524 192.512 143.471 192.293 143.366 192.101C143.262 191.907 143.117 191.754 142.93 191.643C142.745 191.531 142.53 191.476 142.283 191.476C142.021 191.476 141.79 191.54 141.591 191.668C141.392 191.793 141.237 191.959 141.126 192.165C141.017 192.368 140.961 192.592 140.959 192.836V193.592C140.959 193.91 141.017 194.182 141.133 194.409C141.249 194.634 141.411 194.807 141.619 194.928C141.828 195.046 142.071 195.105 142.351 195.105C142.538 195.105 142.707 195.079 142.859 195.027C143.01 194.973 143.142 194.893 143.253 194.789C143.364 194.685 143.448 194.556 143.505 194.402L144.705 194.537C144.629 194.854 144.485 195.131 144.272 195.368C144.061 195.602 143.791 195.785 143.462 195.915C143.133 196.043 142.757 196.107 142.333 196.107ZM147.132 192.804V196H145.846V190.545H147.075V191.472H147.139C147.264 191.167 147.464 190.924 147.739 190.744C148.016 190.564 148.358 190.474 148.765 190.474C149.142 190.474 149.469 190.555 149.749 190.716C150.03 190.877 150.248 191.11 150.402 191.415C150.558 191.721 150.635 192.091 150.633 192.527V196H149.347V192.726C149.347 192.361 149.253 192.076 149.063 191.87C148.876 191.664 148.617 191.561 148.286 191.561C148.061 191.561 147.861 191.611 147.686 191.71C147.513 191.807 147.377 191.948 147.277 192.133C147.18 192.317 147.132 192.541 147.132 192.804ZM154.664 190.545V191.54H151.528V190.545H154.664ZM152.302 189.239H153.588V194.359C153.588 194.532 153.614 194.665 153.666 194.757C153.72 194.847 153.791 194.909 153.879 194.942C153.966 194.975 154.063 194.991 154.17 194.991C154.25 194.991 154.324 194.986 154.39 194.974C154.459 194.962 154.511 194.951 154.546 194.942L154.763 195.947C154.694 195.97 154.596 195.996 154.468 196.025C154.343 196.053 154.189 196.07 154.007 196.075C153.685 196.084 153.395 196.036 153.137 195.929C152.878 195.82 152.674 195.652 152.522 195.425C152.373 195.197 152.3 194.913 152.302 194.572V189.239ZM159.972 191.987L158.8 192.115C158.767 191.997 158.709 191.885 158.626 191.781C158.545 191.677 158.436 191.593 158.299 191.529C158.162 191.465 157.994 191.433 157.795 191.433C157.527 191.433 157.302 191.491 157.12 191.607C156.94 191.723 156.851 191.874 156.854 192.058C156.851 192.217 156.909 192.346 157.028 192.445C157.148 192.545 157.347 192.626 157.624 192.69L158.555 192.889C159.071 193 159.454 193.177 159.705 193.418C159.959 193.66 160.086 193.976 160.089 194.366C160.086 194.71 159.986 195.013 159.787 195.276C159.59 195.536 159.317 195.74 158.967 195.886C158.616 196.033 158.214 196.107 157.759 196.107C157.092 196.107 156.554 195.967 156.147 195.688C155.74 195.406 155.497 195.014 155.419 194.512L156.673 194.391C156.729 194.638 156.85 194.823 157.035 194.949C157.219 195.074 157.46 195.137 157.756 195.137C158.061 195.137 158.306 195.074 158.491 194.949C158.678 194.823 158.771 194.668 158.771 194.484C158.771 194.327 158.711 194.198 158.59 194.097C158.472 193.995 158.287 193.917 158.036 193.862L157.106 193.667C156.583 193.558 156.196 193.375 155.945 193.116C155.694 192.856 155.569 192.527 155.572 192.129C155.569 191.793 155.661 191.502 155.845 191.256C156.032 191.007 156.291 190.815 156.623 190.68C156.957 190.543 157.341 190.474 157.777 190.474C158.416 190.474 158.919 190.611 159.286 190.883C159.656 191.155 159.884 191.523 159.972 191.987Z" fill="white"/>
<rect x="95" y="206" width="30" height="18" rx="2" fill="#61A8E8"/>
<path d="M104.137 216.706V213.545H105.423V219H104.176V218.031H104.119C103.996 218.336 103.794 218.586 103.512 218.78C103.233 218.974 102.888 219.071 102.479 219.071C102.121 219.071 101.805 218.992 101.531 218.833C101.258 218.672 101.045 218.439 100.891 218.134C100.737 217.826 100.661 217.454 100.661 217.018V213.545H101.946V216.82C101.946 217.165 102.041 217.44 102.23 217.643C102.42 217.847 102.668 217.949 102.976 217.949C103.165 217.949 103.349 217.903 103.526 217.81C103.704 217.718 103.849 217.581 103.963 217.398C104.079 217.214 104.137 216.983 104.137 216.706ZM109.468 213.545V214.54H106.333V213.545H109.468ZM107.107 212.239H108.392V217.359C108.392 217.532 108.418 217.665 108.47 217.757C108.525 217.847 108.596 217.909 108.683 217.942C108.771 217.975 108.868 217.991 108.975 217.991C109.055 217.991 109.128 217.986 109.195 217.974C109.263 217.962 109.316 217.951 109.351 217.942L109.568 218.947C109.499 218.97 109.401 218.996 109.273 219.025C109.147 219.053 108.994 219.07 108.811 219.075C108.489 219.084 108.199 219.036 107.941 218.929C107.683 218.82 107.478 218.652 107.327 218.425C107.178 218.197 107.104 217.913 107.107 217.572V212.239ZM110.543 219V213.545H111.829V219H110.543ZM111.19 212.771C110.986 212.771 110.811 212.704 110.664 212.569C110.517 212.432 110.444 212.267 110.444 212.075C110.444 211.881 110.517 211.717 110.664 211.582C110.811 211.444 110.986 211.376 111.19 211.376C111.396 211.376 111.571 211.444 111.715 211.582C111.862 211.717 111.935 211.881 111.935 212.075C111.935 212.267 111.862 212.432 111.715 212.569C111.571 212.704 111.396 212.771 111.19 212.771ZM114.436 211.727V219H113.151V211.727H114.436ZM120.069 214.987L118.897 215.115C118.864 214.997 118.806 214.885 118.723 214.781C118.643 214.677 118.534 214.593 118.397 214.529C118.259 214.465 118.091 214.433 117.892 214.433C117.625 214.433 117.4 214.491 117.218 214.607C117.038 214.723 116.949 214.874 116.951 215.058C116.949 215.217 117.007 215.346 117.125 215.445C117.246 215.545 117.445 215.626 117.722 215.69L118.652 215.889C119.168 216 119.552 216.177 119.803 216.418C120.056 216.66 120.184 216.976 120.186 217.366C120.184 217.71 120.083 218.013 119.885 218.276C119.688 218.536 119.415 218.74 119.064 218.886C118.714 219.033 118.311 219.107 117.857 219.107C117.189 219.107 116.652 218.967 116.245 218.688C115.837 218.406 115.595 218.014 115.517 217.512L116.77 217.391C116.827 217.638 116.948 217.823 117.132 217.949C117.317 218.074 117.557 218.137 117.853 218.137C118.159 218.137 118.404 218.074 118.588 217.949C118.775 217.823 118.869 217.668 118.869 217.484C118.869 217.327 118.809 217.198 118.688 217.097C118.569 216.995 118.385 216.917 118.134 216.862L117.203 216.667C116.68 216.558 116.293 216.375 116.042 216.116C115.791 215.856 115.667 215.527 115.669 215.129C115.667 214.793 115.758 214.502 115.943 214.256C116.13 214.007 116.389 213.815 116.721 213.68C117.054 213.543 117.439 213.474 117.875 213.474C118.514 213.474 119.017 213.611 119.384 213.883C119.753 214.155 119.982 214.523 120.069 214.987Z" fill="white"/>
<rect x="130" y="206" width="20" height="18" rx="2" fill="#8C61E8"/>
<path d="M136.946 211.727V219H135.661V211.727H136.946ZM138.268 219V213.545H139.553V219H138.268ZM138.914 212.771C138.711 212.771 138.535 212.704 138.389 212.569C138.242 212.432 138.169 212.267 138.169 212.075C138.169 211.881 138.242 211.717 138.389 211.582C138.535 211.444 138.711 211.376 138.914 211.376C139.12 211.376 139.295 211.444 139.44 211.582C139.587 211.717 139.66 211.881 139.66 212.075C139.66 212.267 139.587 212.432 139.44 212.569C139.295 212.704 139.12 212.771 138.914 212.771ZM140.932 219V211.727H142.218V214.447H142.271C142.337 214.315 142.431 214.174 142.551 214.025C142.672 213.873 142.836 213.744 143.042 213.638C143.248 213.529 143.51 213.474 143.83 213.474C144.251 213.474 144.631 213.582 144.97 213.798C145.311 214.011 145.581 214.327 145.779 214.746C145.981 215.162 146.081 215.674 146.081 216.28C146.081 216.879 145.983 217.388 145.787 217.807C145.59 218.226 145.323 218.545 144.984 218.766C144.645 218.986 144.262 219.096 143.833 219.096C143.521 219.096 143.262 219.044 143.056 218.94C142.85 218.835 142.684 218.71 142.559 218.563C142.435 218.414 142.34 218.273 142.271 218.141H142.196V219H140.932ZM142.193 216.273C142.193 216.625 142.243 216.934 142.342 217.2C142.444 217.465 142.589 217.672 142.779 217.821C142.971 217.968 143.203 218.041 143.475 218.041C143.759 218.041 143.997 217.965 144.189 217.814C144.38 217.66 144.525 217.451 144.622 217.185C144.721 216.918 144.771 216.614 144.771 216.273C144.771 215.934 144.722 215.634 144.625 215.371C144.528 215.108 144.384 214.902 144.192 214.753C144 214.604 143.761 214.529 143.475 214.529C143.2 214.529 142.967 214.601 142.775 214.746C142.583 214.89 142.438 215.093 142.338 215.353C142.241 215.613 142.193 215.92 142.193 216.273Z" fill="white"/>
</svg>
